<?xml version="1.0" encoding="utf-8"?>
<!-- Generator: Adobe Illustrator 24.0.0, SVG Export Plug-In . SVG Version: 6.00 Build 0)  -->
<svg version="1.1" id="Layer_1" xmlns="http://www.w3.org/2000/svg" xmlns:xlink="http://www.w3.org/1999/xlink" x="0px" y="0px"
	 viewBox="0 0 595.3 412.1" style="enable-background:new 0 0 595.3 412.1;" xml:space="preserve">
<style type="text/css">
	.st0{fill-rule:evenodd;clip-rule:evenodd;fill:#F49800;}
	.st1{fill-rule:evenodd;clip-rule:evenodd;fill:#13110C;}
	.st2{fill:#F49800;}
</style>
<g>
	<path class="st0" d="M225.2,238.1c-15.1,11.1-36.9,17-55.7,17c-26.4,0-50.1-9.7-68.1-26c-1.4-1.3-0.2-3,1.5-2
		c19.4,11.3,43.4,18.1,68.1,18.1c16.7,0,35.1-3.5,52-10.6C225.6,233.5,227.7,236.2,225.2,238.1z"/>
	<path class="st0" d="M231.5,230.9c-1.9-2.5-12.7-1.2-17.6-0.6c-1.5,0.2-1.7-1.1-0.4-2c8.6-6.1,22.8-4.3,24.4-2.3
		c1.7,2-0.4,16.2-8.5,23c-1.2,1-2.4,0.5-1.9-0.9C229.4,243.6,233.4,233.4,231.5,230.9z"/>
	<path class="st1" d="M214.2,185.5v-5.9c0-0.9,0.7-1.5,1.5-1.5l26.4,0c0.8,0,1.5,0.6,1.5,1.5v5.1c0,0.8-0.7,2-2,3.7L228,207.9
		c5.1-0.1,10.4,0.6,15.1,3.2c1,0.6,1.3,1.4,1.4,2.3v6.3c0,0.9-0.9,1.9-1.9,1.3c-8.1-4.3-18.9-4.7-27.9,0.1c-0.9,0.5-1.9-0.5-1.9-1.4
		v-6c0-1,0-2.6,1-4l15.8-22.7l-13.8,0C214.9,187,214.3,186.4,214.2,185.5z"/>
	<path class="st1" d="M118,222.3h-8c-0.8-0.1-1.4-0.6-1.4-1.4l0-41.2c0-0.8,0.7-1.5,1.5-1.5l7.5,0c0.8,0,1.4,0.6,1.5,1.4v5.4h0.2
		c1.9-5.2,5.6-7.6,10.6-7.6c5,0,8.2,2.4,10.4,7.6c1.9-5.2,6.4-7.6,11.1-7.6c3.4,0,7,1.4,9.3,4.5c2.5,3.5,2,8.5,2,12.9l0,26
		c0,0.8-0.7,1.5-1.5,1.5h-8c-0.8-0.1-1.4-0.7-1.4-1.5l0-21.8c0-1.7,0.1-6.1-0.2-7.7c-0.6-2.8-2.4-3.6-4.7-3.6c-1.9,0-4,1.3-4.8,3.4
		c-0.8,2.1-0.7,5.5-0.7,7.9v21.8c0,0.8-0.7,1.5-1.5,1.5h-8c-0.8-0.1-1.4-0.7-1.4-1.5l0-21.8c0-4.6,0.7-11.4-4.9-11.4
		c-5.8,0-5.5,6.6-5.5,11.4l0,21.8C119.5,221.6,118.8,222.3,118,222.3z"/>
	<path class="st1" d="M266.4,177.3c11.9,0,18.4,10.2,18.4,23.2c0,12.6-7.1,22.5-18.4,22.5c-11.7,0-18.1-10.2-18.1-23
		C248.3,187.3,254.8,177.3,266.4,177.3z M266.5,185.7c-5.9,0-6.3,8.1-6.3,13.1c0,5-0.1,15.8,6.2,15.8c6.2,0,6.5-8.7,6.5-14
		c0-3.5-0.1-7.6-1.2-10.9C270.8,186.9,269,185.7,266.5,185.7z"/>
	<path class="st1" d="M300.2,222.3h-8c-0.8-0.1-1.4-0.7-1.4-1.5l0-41.2c0.1-0.8,0.7-1.3,1.5-1.3l7.4,0c0.7,0,1.3,0.5,1.4,1.2v6.3
		h0.2c2.2-5.6,5.4-8.3,10.9-8.3c3.6,0,7.1,1.3,9.4,4.9c2.1,3.3,2.1,8.8,2.1,12.8V221c-0.1,0.7-0.7,1.3-1.5,1.3h-8
		c-0.7,0-1.3-0.6-1.4-1.3v-22.4c0-4.5,0.5-11.1-5-11.1c-1.9,0-3.7,1.3-4.6,3.3c-1.1,2.5-1.3,5-1.3,7.8v22.2
		C301.8,221.6,301.1,222.3,300.2,222.3z"/>
	<path class="st1" d="M193.2,202.6c0,3.1,0.1,5.7-1.5,8.5c-1.3,2.3-3.3,3.7-5.6,3.7c-3.1,0-4.9-2.3-4.9-5.8c0-6.8,6.1-8.1,11.9-8.1
		V202.6z M201.3,222.2c-0.5,0.5-1.3,0.5-1.9,0.2c-2.7-2.2-3.1-3.2-4.6-5.4c-4.4,4.5-7.5,5.8-13.2,5.8c-6.8,0-12-4.2-12-12.5
		c0-6.5,3.5-11,8.6-13.1c4.4-1.9,10.4-2.3,15.1-2.8v-1c0-1.9,0.1-4.2-1-5.8c-1-1.5-2.9-2.1-4.5-2.1c-3.1,0-5.8,1.6-6.5,4.8
		c-0.1,0.7-0.7,1.4-1.4,1.5l-7.8-0.8c-0.7-0.1-1.4-0.7-1.2-1.7c1.8-9.4,10.3-12.3,18-12.3c3.9,0,9,1,12.1,4
		c3.9,3.7,3.5,8.5,3.5,13.8v12.5c0,3.8,1.6,5.4,3,7.4c0.5,0.7,0.6,1.6,0,2.1C205.8,218.2,202.9,220.7,201.3,222.2L201.3,222.2z"/>
	<path class="st1" d="M87.9,202.6c0,3.1,0.1,5.7-1.5,8.5c-1.3,2.3-3.3,3.7-5.6,3.7c-3.1,0-4.9-2.3-4.9-5.8c0-6.8,6.1-8.1,11.9-8.1
		V202.6z M96,222.2c-0.5,0.5-1.3,0.5-1.9,0.2c-2.7-2.2-3.1-3.2-4.6-5.4c-4.4,4.5-7.5,5.8-13.2,5.8c-6.8,0-12-4.2-12-12.5
		c0-6.5,3.5-11,8.6-13.1c4.4-1.9,10.4-2.3,15.1-2.8v-1c0-1.9,0.2-4.2-1-5.8c-1-1.5-2.9-2.1-4.5-2.1c-3.1,0-5.8,1.6-6.5,4.8
		c-0.1,0.7-0.7,1.4-1.4,1.5l-7.8-0.8c-0.7-0.1-1.4-0.7-1.2-1.7c1.8-9.4,10.3-12.3,18-12.3c3.9,0,9,1,12.1,4
		c3.9,3.7,3.5,8.5,3.5,13.8v12.5c0,3.8,1.6,5.4,3,7.4c0.5,0.7,0.6,1.6,0,2.1C100.6,218.2,97.7,220.7,96,222.2L96,222.2z"/>
	<path class="st2" d="M360.9,222.3l-18.7-22.7h-0.1v22.7h-6.7V157h6.7v37.1h0.1l16-15.4h8.8l-19.2,17.8l21.7,25.8H360.9z"/>
	<path class="st2" d="M377.3,169.5c-2.6,0-4.7-2.1-4.7-4.7c0-2.6,2.1-4.7,4.7-4.7c2.6,0,4.7,2.1,4.7,4.7
		C382,167.4,379.9,169.5,377.3,169.5z M374,222.3v-43.6h6.7v43.6H374z"/>
	<path class="st2" d="M418.6,222.3v-26.8c0-5.4-0.9-11.5-7.6-11.5c-5.3,0-10.2,3.8-13.5,6.6v31.7h-6.7v-43.6h5.5l0.9,5.3
		c4.8-3.7,9.5-6.4,15.6-6.4c6.3,0,12.5,4.5,12.5,15.4v29.3H418.6z"/>
	<path class="st2" d="M455,223.2c-12.2,0-22.4-7.1-22.4-22.1c0-13.6,9.8-23.5,22.5-23.5c3.1,0,5.3,0.3,7.1,0.7V157h6.7v63.1
		C466.2,221.6,461.1,223.2,455,223.2z M462.2,184.6c-1.8-0.6-3.3-1.1-6.7-1.1c-8.6,0-16,6.7-16,17.2c0,9.9,5.4,16.9,16.8,16.9
		c2.2,0,4.6-0.5,6-1.1V184.6z"/>
	<path class="st2" d="M486.4,223.2c-5.3,0-7.6-3.4-7.6-8V157h6.7v55.1c0,4.1,1,5,3.6,5c0.5,0,1.2,0,2.3-0.3l0.8,4.9
		C490.2,222.7,488.6,223.2,486.4,223.2z"/>
	<path class="st2" d="M503.1,201.6c0,8.3,4.8,15.8,14.2,15.8c4,0,8-1.6,10.6-3.2l2.1,4.8c-3.2,2.2-8.8,4.2-13.5,4.2
		c-13.9,0-20.6-11.2-20.6-23.6c0-12.6,7.2-22,17.7-22c11.2,0,17.4,8.9,17.4,22.5c0,0.5,0,1,0,1.6H503.1z M513.7,183.3
		c-6.5,0-10.5,5.7-10.5,12.6h20.6C523.7,189.8,520.3,183.3,513.7,183.3z"/>
</g>
</svg>
