<?xml version="1.0" encoding="utf-8"?>
<!-- Generator: Adobe Illustrator 25.0.1, SVG Export Plug-In . SVG Version: 6.00 Build 0)  -->
<svg version="1.0" id="katman_1" xmlns="http://www.w3.org/2000/svg" xmlns:xlink="http://www.w3.org/1999/xlink" x="0px" y="0px"
	 viewBox="0 0 800 600" style="enable-background:new 0 0 800 600;" xml:space="preserve">
<style type="text/css">
	.st0{fill:#0061FE;}
	.st1{fill:#1E1919;}
</style>
<path class="st0" d="M446.1,320.1H463c12.2,0,21.2-7.5,21.2-22.6v-3.4c0-15.2-9.8-22.7-21.6-22.7h-16.5V320.1z M462.3,277.3
	c8.8,0,15.2,5.9,15.2,17.3v2.5c0,11.4-6.2,17.2-14.8,17.2h-10v-37H462.3z"/>
<path class="st0" d="M510.1,321.2c11.8,0,19.6-7.4,19.6-19.9v-0.9c0-12.8-8.1-20.4-19.6-20.4c-11.3,0-19.6,7.4-19.6,20.4v0.9
	C490.5,313.8,497.6,321.2,510.1,321.2z M510.1,315.2c-8.1,0-12.8-5.3-12.8-14.1v-0.8c0-9.4,5.3-14.6,12.8-14.6
	c7.6,0,12.8,5.6,12.8,14.6v0.8C522.9,309.9,518.2,315.2,510.1,315.2z"/>
<path class="st0" d="M555.1,321.2c10.4,0,17.7-5,18.9-16.1v-0.1H567v0.1c-1.2,6.9-5.2,10.2-11.9,10.2c-7.9,0-12.7-5.3-12.7-14.1
	v-0.8c0-9.4,5.3-14.6,12.8-14.6c6.4,0,10.7,3.3,11.8,10.2v0.1h6.9v-0.1c-1.2-10.8-8.4-15.9-18.8-15.9c-11.2,0-19.6,7.4-19.6,20.4
	v0.9C535.6,313.8,542.8,321.2,555.1,321.2z"/>
<path class="st0" d="M597.8,321.2c12,0,18.3-6.7,18.2-14.7c-0.1-10.5-8.4-12.4-16.5-14c-6.8-1.4-13.1-2.3-13.1-8.3
	c0-4.2,3.2-7.8,10.1-7.8c7.7,0,11.3,3.3,11.7,9.4h6.9c-0.5-9.3-6.4-15.1-18.5-15.1c-11.3,0-16.9,6.4-16.9,13.5
	c0,10.2,8.3,12,16.2,13.6c7,1.3,13.5,2.4,13.5,8.8c0,4.5-3.5,8.6-11.4,8.6c-8.8,0-12.7-4.1-12.9-11.5h-7.1
	C578.2,314.7,583.6,321.2,597.8,321.2z"/>
<path class="st0" d="M641.3,285.4c7.5,0,11.6,4.8,12.2,12.2h-25.3C629,290,633.8,285.4,641.3,285.4z M659.6,308.5h-7.2
	c-1.5,4.6-5.4,7-11.1,7c-8.1,0-12.7-4.7-13.2-12.7h32v-3.1c0-10.5-6-19.7-18.9-19.7c-12.1,0-19.7,8.1-19.7,20.5v0.8
	c0,12.1,6.6,19.8,19.5,19.8C650.7,321.2,657.3,316.6,659.6,308.5z"/>
<path class="st0" d="M673.7,299.7c0-8.3,4.2-13.9,11.9-13.9c7.6,0,10.5,4.9,10.5,12.1v22.2h6.7v-23.7c0-9.9-5.2-16.4-15.3-16.4
	c-7.4,0-12.3,4-14.3,10l-0.7-8.9H667v39.1h6.7V299.7z"/>
<path class="st0" d="M728.8,315.2c-7.1,0-12.3-5.1-12.3-14.4v-0.7c0-8.8,4.5-14.4,12.7-14.4c7.7,0,12.5,6,12.5,14.6v0.5
	C741.8,309.2,736.8,315.2,728.8,315.2z M742.5,320.1h5.5v-52.4h-6.4v21.1c-2.3-5.4-7.1-8.8-14.1-8.8c-10.6,0-17.7,7.3-17.7,19.9v0.9
	c0,12.9,7.1,20.2,17.3,20.2c7.6,0,12.5-4.2,14.7-10.1L742.5,320.1z"/>
<path class="st1" d="M139.5,271.4H158c11.8,0,21.6,6.9,21.6,22.6v3.4c0,15.7-9.1,22.9-21.3,22.9h-18.8V271.4z M149.9,280.2v31h8
	c6.7,0,11.2-4.4,11.2-14.2v-2.6c0-9.8-4.7-14.2-11.6-14.2H149.9z M185.1,280.7h8.3l1.3,9.1c1.6-6.3,5.6-9.5,12.9-9.5h2.6v10.5h-4.3
	c-8.4,0-10.5,2.9-10.5,11.3v18h-10.2V280.7z M212.2,301.3v-1.1c0-13.3,8.4-20.4,19.9-20.4c11.7,0,19.8,7.3,19.8,20.4v1.1
	c0,13-8,19.9-19.8,19.9C219.4,321.2,212.2,314.2,212.2,301.3z M241.5,301.1v-1c0-7.4-3.7-11.7-9.5-11.7c-5.7,0-9.5,4-9.5,11.7v1
	c0,7.1,3.6,11.1,9.5,11.1C237.9,312.2,241.5,308.3,241.5,301.1z M257.3,280.7h8.6l1,7.5c2.1-5.1,6.5-8.4,12.9-8.4
	c10,0,16.6,7.3,16.6,20.5v1.1c0,13-7.3,19.7-16.6,19.7c-6.3,0-10.4-2.8-12.5-7.4v19.9h-10V280.7z M286.1,301.2v-0.9
	c0-7.9-4-11.8-9.4-11.8c-5.7,0-9.5,4.4-9.5,11.7v0.8c0,6.9,3.7,11.3,9.4,11.3C282.3,312.3,286.1,308.4,286.1,301.2z M311.5,313
	l-0.8,7.2h-8.9v-52.7h10v20.2c2.2-5.1,6.6-7.9,12.8-7.9c9.4,0.1,16.3,6.6,16.3,19.7v1.2c0,13.1-6.6,20.5-16.6,20.5
	C317.8,321.2,313.6,318,311.5,313z M330.6,300.6v-1c0-7.3-3.9-11.2-9.4-11.2c-5.6,0-9.5,4.6-9.5,11.3v0.8c0,7.4,3.8,11.6,9.4,11.6
	C326.9,312.3,330.6,308.4,330.6,300.6z M345.4,301.3v-1.1c0-13.3,8.4-20.4,19.8-20.4c11.7,0,19.9,7.3,19.9,20.4v1.1
	c0,13-8,19.9-19.9,19.9C352.6,321.2,345.4,314.2,345.4,301.3z M374.8,301.1v-1c0-7.4-3.7-11.7-9.5-11.7c-5.7,0-9.5,4-9.5,11.7v1
	c0,7.1,3.6,11.1,9.5,11.1S374.8,308.3,374.8,301.1z M398.5,299.7l-13.8-19h11.8l8,11.8l8-11.8h11.7l-14,19l14.8,20.5h-11.5l-9.1-13
	l-8.8,13h-12L398.5,299.7z"/>
<path class="st0" d="M79.5,266.3c-16.7,0-28,9.8-28,27.8v3.7c0,18.8,10.5,27.4,28,27.4c16.8,0,28.1-8.8,28.1-27.4v-2h-28V266.3z"/>
<path class="st1" d="M107.5,295.7v-29.4h-28L107.5,295.7z"/>
</svg>
