<?xml version="1.0" encoding="utf-8"?>
<!-- Generator: Adobe Illustrator 26.5.0, SVG Export Plug-In . SVG Version: 6.00 Build 0)  -->
<svg version="1.0" id="katman_1" xmlns="http://www.w3.org/2000/svg" xmlns:xlink="http://www.w3.org/1999/xlink" x="0px" y="0px"
	 viewBox="0 0 1190.55 841.89" style="enable-background:new 0 0 1190.55 841.89;" xml:space="preserve">
<style type="text/css">
	.st0{fill:#010202;}
	.st1{fill:#FFFFFF;}
	.st2{fill:#62388E;}
</style>
<path class="st0" d="M685.05,402.22h25.6v91.42h-25.6v-11.89c-9.14,13.71-21.03,14.63-28.34,14.63c-28.34,0-46.63-21.94-46.63-48.45
	c0-27.43,18.28-48.45,44.8-48.45c7.31,0,21.03,0.91,29.26,14.63v-11.89H685.05z M637.51,447.93c0,14.63,10.06,25.6,25.6,25.6
	c14.63,0,25.6-10.97,25.6-25.6c0-14.63-10.06-25.6-25.6-25.6C648.48,422.33,637.51,433.3,637.51,447.93z M760.93,424.16v69.48h-25.6
	v-69.48h-10.06v-21.94h10.06v-31.08h25.6v31.08h17.37v21.94H760.93z M838.64,424.16c-6.4-5.49-11.89-6.4-14.63-6.4
	c-6.4,0-10.06,2.74-10.06,7.31c0,2.74,0.91,5.49,8.23,8.23l6.4,1.83c7.31,2.74,18.28,5.49,22.86,12.8
	c2.74,3.66,4.57,9.14,4.57,15.54c0,8.23-2.74,16.46-10.06,22.86c-7.31,6.4-16.46,10.06-27.43,10.06c-19.2,0-29.26-9.14-35.66-15.54
	l13.71-15.54c5.49,5.49,12.8,10.97,20.11,10.97c7.31,0,12.8-3.66,12.8-10.06c0-5.49-4.57-8.23-8.23-9.14l-5.49-1.83
	c-6.4-2.74-13.71-5.49-19.2-10.97c-4.57-4.57-7.31-10.06-7.31-17.37c0-9.14,4.57-16.46,9.14-21.03c7.31-5.49,16.46-6.4,23.77-6.4
	c6.4,0,17.37,0.91,29.26,10.06C851.44,409.53,838.64,424.16,838.64,424.16z M894.41,414.1c9.14-12.8,21.94-14.63,29.26-14.63
	c26.51,0,44.8,21.03,44.8,48.45c0,27.43-18.28,48.45-45.71,48.45c-5.49,0-19.2-0.91-29.26-14.63v11.89h-24.68V340.05h25.6
	C894.41,340.05,894.41,414.1,894.41,414.1z M891.67,447.93c0,14.63,10.06,25.6,25.6,25.6c14.63,0,25.6-10.97,25.6-25.6
	c0-14.63-10.06-25.6-25.6-25.6S891.67,433.3,891.67,447.93z M1010.52,479.93l-43.88-77.71h30.17l28.34,52.11l25.6-52.11H1080
	l-73.14,139.88h-29.26C977.61,542.09,1010.52,479.93,1010.52,479.93z M603.69,417.76h-64v25.6h33.83
	c-5.49,17.37-18.28,29.26-42.05,29.26c-26.51,0-45.71-21.94-45.71-48.45s18.28-49.37,44.8-49.37c14.63,0,29.26,7.31,38.4,19.2
	l21.03-13.71c-13.71-19.2-35.66-30.17-59.43-30.17c-40.23,0-73.14,32.91-73.14,74.05s31.08,74.05,73.14,74.05
	c42.05,0,73.14-32.91,73.14-74.05C604.6,421.41,603.69,419.59,603.69,417.76z"/>
<path class="st1" d="M338.56,420.5h-64v18.28h43.88c-6.4,27.43-26.51,50.28-53.03,59.43L160.28,393.07
	c10.97-32,42.05-54.85,77.71-54.85c27.43,0,52.11,13.71,67.65,34.74l13.71-11.89c-18.28-24.68-47.54-41.14-81.37-41.14
	c-47.54,0-87.77,33.83-97.82,78.62l120.68,120.68C304.73,508.27,338.56,468.04,338.56,420.5z M137.43,421.41
	c0,25.6,10.06,50.28,29.26,69.48c19.2,19.2,44.8,29.26,69.48,29.26L137.43,421.41z"/>
<path class="st2" d="M237.99,292.51C167.6,292.51,110,350.1,110,420.5s57.6,127.99,127.99,127.99s127.99-57.6,127.99-127.99
	S308.39,292.51,237.99,292.51z M166.68,491.81c-19.2-19.2-29.26-44.8-29.26-69.48l99.65,98.74
	C211.48,520.15,185.88,511.01,166.68,491.81z M259.93,518.32L140.17,398.56c10.06-44.8,50.28-78.62,97.82-78.62
	c33.83,0,63.08,16.46,81.37,41.14l-13.71,11.89c-15.54-21.03-40.23-34.74-67.65-34.74c-35.66,0-65.82,22.86-77.71,54.85
	l105.14,105.14c26.51-9.14,46.63-32,53.03-59.43h-43.88V420.5h64C338.56,468.04,304.73,508.27,259.93,518.32z"/>
</svg>
