<?xml version="1.0" encoding="utf-8"?>
<!-- Generator: Adobe Illustrator 25.4.1, SVG Export Plug-In . SVG Version: 6.00 Build 0)  -->
<svg version="1.0" id="katman_1" xmlns="http://www.w3.org/2000/svg" xmlns:xlink="http://www.w3.org/1999/xlink" x="0px" y="0px"
	 viewBox="0 0 1500 1200" style="enable-background:new 0 0 1500 1200;" xml:space="preserve">
<style type="text/css">
	.st0{fill:#5E34F1;stroke:#5E34F1;stroke-width:7.0674;}
	.st1{fill:#FF3964;}
	.st2{fill:#5E34F1;}
	.st3{fill:#FFFFFF;}
</style>
<g id="logo" transform="translate(-40.411 -59.648)">
	<g id="Group_54">
		<path id="Path_74" d="M1192.6,584.1v64.1c0,11.3,4.2,19.3,14.8,19.3c18.1,0,24.9-24.9,24.9-52.4v-31h35.2l-0.1,111.6h-24
			l-7.8-43.4c-4.5,26.5-17.9,43.7-40.6,43.7c-26.1,0-37.6-18.1-37.6-47.7v-64.1H1192.6z"/>
		<path id="Path_75" d="M624.6,583.9c1-2,1.6-4.1,1.6-6.4c0-5.4-3.3-8.5-9.4-8.7l10.6-16.7c12.7,0.5,20.7,7.5,20.7,17.4
			c0,7.3-4,12.9-13.6,18.6c10.6,5.5,17.4,16.4,17.4,28.4c0,19.5-18.6,36.4-51.7,36.4c-8.4,0.2-16.7-1.1-24.7-3.8
			c-3.2,1.2-5.5,4.1-5.9,7.5c0,6.1,6.6,8,14.8,8h26.1c34.3,0,51.4,12.5,51.4,31.5c0,24-23,36.4-63.9,36.4
			c-34.1,0-61.5-7.5-61.5-25.8c0-12.7,15.7-20,35.7-20.2c-19.7-2.8-29.8-8.7-29.8-21.9c0-11.7,13.9-17.9,24.4-19.5
			c-11.1-5.3-18.1-16.4-18.1-28.7c0-21.4,20-36.6,51.4-36.6C608.5,579.8,616.7,581.2,624.6,583.9L624.6,583.9z M592.4,689.1
			c-14.3,0-23,3.8-23,12.2c0,8.9,11.3,13.6,30.1,13.6c19.3,0,30.3-5.7,30.3-14.8c0-6.4-6.1-11-18.8-11H592.4z M600.2,597.7
			c-10.4,0-18.8,8.4-18.8,18.8s8.4,18.8,18.8,18.8c9.9,0.5,18.3-7,18.8-16.9c0-0.6,0-1.3,0-1.9c0.7-9.7-6.6-18.1-16.3-18.8
			C601.8,597.7,601,597.7,600.2,597.7L600.2,597.7z"/>
		<path id="Path_76" d="M868.6,696.4c-18.8,0-28.9-12.2-34.8-26.1v62.2h-35.2v-148h20.4l7.5,34.8c4.5-17.4,14.3-37.1,41.1-37.1
			c29.6,0,45.8,24.7,45.8,57.1C913.5,671.7,897.8,696.4,868.6,696.4z M856.4,605.7c-12.5,0-22.6,12.7-22.6,33.6
			c0,20.9,10.1,33.6,22.6,33.6c14.3,0,21.8-13.9,21.8-33.6C878.3,619.6,870.8,605.7,856.4,605.7z"/>
		<path id="Path_77" d="M702.6,584.1v64.1c0,11.3,4.2,19.3,14.8,19.3c18.1,0,24.9-24.9,24.9-52.4v-31h35.2l-0.1,111.6h-24l-7.9-43.4
			c-4.5,26.5-17.9,43.7-40.6,43.7c-26.1,0-37.6-18.1-37.6-47.7v-64.1H702.6z"/>
		<path id="Path_78" d="M969.1,695.9c-19.8,0.7-38.8-8-51.2-23.4l15.6-16.1c8,11.3,20.7,18.3,34.5,19.1c9.2,0,12.2-4.4,12.2-9.2
			c0-5.5-4.8-9-17.5-13.1c-30.1-9.9-39-20-39-38.2c0-21.6,18.4-30.8,43.4-30.8c17.4-0.1,34.2,6.5,46.9,18.4l-12.2,16.5
			c-9.1-8.6-21-13.8-33.5-14.5c-6.9,0-10.8,2.8-10.8,8c0,7.6,6.4,9.2,22.3,15.4c21.8,8.5,34.2,16.3,34.2,34.2
			C1013.9,683.4,996.7,695.9,969.1,695.9L969.1,695.9z"/>
		<path id="Path_79" d="M1103.3,695.9v-64.1c0-11.3-4.2-19.3-14.8-19.3c-18.1,0-24.9,24.9-24.9,52.4v31h-35.2V539.4h35.2V624
			c4.5-25.4,18.6-39.9,37.3-39.9c26.1,0,37.6,18.1,37.6,47.7v64.1H1103.3z"/>
		<path id="Path_80" d="M1358.6,696.4c-18.8,0-28.9-12.2-34.8-26.1v62.2h-35.2v-148h20.4l7.5,34.8c4.5-17.4,14.3-37.1,41.1-37.1
			c29.6,0,45.8,24.7,45.8,57.1C1403.5,671.7,1387.8,696.4,1358.6,696.4z M1346.4,605.7c-12.4,0-22.6,12.7-22.6,33.6
			c0,20.9,10.1,33.6,22.6,33.6c14.3,0,21.8-13.9,21.8-33.6C1368.3,619.6,1360.7,605.7,1346.4,605.7z"/>
	</g>
	<path id="Path_81" class="st0" d="M402.6,671.7c-0.7,5.4-3.2,10.4-7.1,14.1c-3.9,4-9,6.6-14.5,7.3c-23.3,2.2-46.7,3.4-70.1,3.7
		c-9.2,0.1-17.9,3.8-24.4,10.3l-30.7,30.7v-24.3c0-10-7.7-18.3-17.7-19c-6-0.4-12.1-0.9-18.1-1.5c-5.5-0.7-10.7-3.3-14.5-7.3
		c-3.9-3.7-6.4-8.7-7.1-14.1c-2.7-35.5-2.7-71.1,0-106.6c0.6-5.4,3.2-10.4,7.1-14.1c3.9-4,9-6.6,14.5-7.3c53.5-5,107.4-5,160.9,0
		c5.5,0.7,10.7,3.3,14.5,7.3c4,3.7,6.5,8.7,7.1,14.1C405.3,600.6,405.3,636.2,402.6,671.7z"/>
	<path id="Path_82" class="st1" d="M410,798.2c-3.4,0-6.7-1.4-9.1-3.8l-40-40c-3.1-3.1-7.3-4.9-11.7-4.9
		c-13.9-0.2-20.4-0.3-31.1-1.1c-5-0.5-8.7-5.1-8.1-10.1c0.5-4.7,4.6-8.3,9.4-8.2c10.3,0.7,16.6,0.9,30.1,1c9.2,0.1,18,3.8,24.4,10.3
		l30.7,30.7v-24.2c0-10,7.7-18.2,17.7-19c6-0.4,12.1-0.9,18.1-1.5c5.5-0.7,10.7-3.3,14.6-7.3c4-3.7,6.5-8.7,7.1-14.1
		c2.7-35.5,2.7-71.1,0-106.6c-1.5-9.7-8.5-17.8-17.9-20.7c-4.8-1.7-7.3-6.9-5.7-11.7c1.6-4.5,6.3-7.1,11-5.9
		c16.7,5.1,28.8,19.5,30.9,36.8c2.8,36.4,2.8,73,0,109.5c-2.4,20-18.2,35.8-38.2,38.3h-0.1c-6.1,0.6-12.3,1.1-18.5,1.5
		c-0.4,0-0.6,0.4-0.6,0.7v37.3C423,792.4,417.2,798.2,410,798.2C410,798.2,410,798.2,410,798.2L410,798.2z"/>
	<path id="Path_83" class="st2" d="M420.9,563.6c-2.4-20-18.2-35.8-38.2-38.3h-0.1c-54.7-5.1-109.7-5.1-164.4,0h-0.1
		c-20,2.5-35.8,18.3-38.2,38.3c-2.8,36.4-2.8,73,0,109.5c2.4,20,18.2,35.8,38.2,38.2h0.1c6.1,0.6,12.3,1.1,18.5,1.5
		c0.4,0,0.6,0.4,0.6,0.7V751c0,5.2,3.2,9.9,8,11.9c1.6,0.6,3.2,1,4.9,1c3.4,0,6.7-1.4,9.1-3.8l40-40c3.1-3.1,7.3-4.9,11.7-4.9
		c23.6-0.3,47.7-1.5,71.6-3.8h0.1c20-2.5,35.8-18.2,38.2-38.3C423.7,636.7,423.7,600.1,420.9,563.6L420.9,563.6z M402.6,671.7
		c-0.7,5.4-3.2,10.4-7.1,14.1c-3.9,4-9,6.6-14.5,7.3c-23.3,2.2-46.7,3.4-70.1,3.7c-9.2,0.1-17.9,3.8-24.4,10.3l-30.7,30.7v-24.3
		c0-10-7.7-18.3-17.7-19c-6-0.4-12.1-0.9-18.1-1.5c-5.5-0.7-10.7-3.3-14.5-7.3c-3.9-3.7-6.4-8.7-7.1-14.1
		c-2.7-35.5-2.7-71.1,0-106.6c0.6-5.4,3.2-10.4,7.1-14.1c3.9-4,9-6.6,14.5-7.3c53.5-5,107.4-5,160.9,0c5.5,0.7,10.7,3.3,14.5,7.3
		c4,3.7,6.5,8.7,7.1,14.1C405.3,600.6,405.3,636.2,402.6,671.7z"/>
	<path id="Path_86" class="st3" d="M266.9,655.7c-1.6,0-3.2-0.5-4.6-1.4l-34.7-23.8c-3.7-2.5-4.6-7.6-2.1-11.2
		c0.6-0.8,1.3-1.5,2.1-2.1l34.7-23.8c3.7-2.5,8.7-1.6,11.2,2.1s1.6,8.7-2.1,11.2l0,0l-25,17.1l25,17.1c3.7,2.5,4.6,7.6,2.1,11.3
		C272.1,654.4,269.6,655.7,266.9,655.7z"/>
	<g id="Group_55">
		<path id="Path_84" class="st1" d="M454.9,720.1c4-3.7,6.5-8.7,7.1-14.1c2.7-35.5,2.7-71.1,0-106.6c-1.5-9.7-8.5-17.8-17.9-20.7
			c-1.8-0.5-3.3-1.6-4.5-3c3,41.1,3,82.3-0.2,123.3c-0.8,6.4-3.8,12.2-8.4,16.6c-4.6,4.7-10.6,7.8-17.1,8.6
			c-27.6,2.6-55.4,4-82.6,4.4c-3.5,0.1-7,0.6-10.4,1.5c9.4,0.6,15.7,0.8,28.5,0.9c9.2,0.1,18,3.8,24.4,10.3l30.7,30.7v-24.2
			c0-10,7.7-18.2,17.6-19c6-0.4,12.1-0.9,18.1-1.5C445.9,726.7,451,724.1,454.9,720.1z"/>
	</g>
	<g id="Group_56">
		<path id="Path_85" class="st3" d="M334,655.7c-4.5,0-8.1-3.6-8.1-8.1c0-2.7,1.3-5.2,3.5-6.7l25-17.1l-25-17.1
			c-3.7-2.5-4.6-7.6-2.1-11.2s7.6-4.6,11.2-2.1l0,0l34.7,23.8c3.7,2.5,4.6,7.6,2.1,11.2c-0.6,0.8-1.3,1.5-2.1,2.1l-34.7,23.8
			C337.3,655.3,335.7,655.7,334,655.7z"/>
	</g>
	<g id="Group_58">
		<path id="Path_87" class="st3" d="M288.6,679.5c-4.5,0-8.1-3.6-8.1-8.1c0-0.7,0.1-1.3,0.2-2l23.8-95c1.1-4.3,5.5-7,9.8-5.9
			s7,5.5,5.9,9.8l-23.8,95.1C295.6,677,292.3,679.5,288.6,679.5z"/>
	</g>
</g>
</svg>
