<?xml version="1.0" encoding="utf-8"?>
<!-- Generator: Adobe Illustrator 24.3.0, SVG Export Plug-In . SVG Version: 6.00 Build 0)  -->
<svg version="1.0" id="katman_1" xmlns="http://www.w3.org/2000/svg" xmlns:xlink="http://www.w3.org/1999/xlink" x="0px" y="0px"
	 viewBox="0 0 841.89 595.28" style="enable-background:new 0 0 841.89 595.28;" xml:space="preserve">
<style type="text/css">
	.st0{fill:none;stroke:#EB5A3A;stroke-width:4;stroke-miterlimit:10;}
	.st1{fill:#272727;}
	.st2{fill:#EB5A3A;}
</style>
<path class="st0" d="M140.22,377.9L140.22,377.9c-44.55,0-80.99-36.44-80.99-80.75l0,0c0-44.55,36.36-80.75,80.99-80.75l0,0
	c44.31,0,80.75,36.44,80.75,80.75l0,0C220.97,341.54,184.53,377.9,140.22,377.9z"/>
<path class="st1" d="M420.1,314.62c-1.89,0.71-3.86,1.18-5.51,1.18c-3.86,0-6.93-0.71-9.13-2.36c-2.13-1.65-3.62-3.86-3.86-6.22
	h31.4c0.71-5.98,0.47-11.26-0.71-15.82c-1.42-4.57-3.86-8.19-7.16-10.55c-3.38-2.36-7.87-3.86-13.46-3.86
	c-4.8,0-9.13,1.18-12.91,3.38c-3.86,2.13-6.93,5.27-9.13,9.37c-2.13,4.09-3.38,8.66-3.38,13.93s1.18,9.6,3.38,13.46
	c2.2,3.86,5.27,6.69,9.37,8.66c4.09,2.13,8.89,3.15,14.4,3.15c4.8,0,8.89-0.71,12.2-2.36c3.15-1.42,5.75-3.62,7.87-6.22l-8.42-8.89
	C423.72,312.73,422.07,313.67,420.1,314.62z M405.3,289.98c1.89-1.65,4.09-2.36,6.69-2.36c2.6,0,4.8,0.71,6.22,2.13
	s2.13,3.62,2.13,6.69H401.6C402.39,293.84,403.57,291.64,405.3,289.98z"/>
<path class="st1" d="M518.4,327.6c0-8.66,0.47-15.82,1.42-21.09c0.94-5.27,2.36-9.13,4.33-11.49c1.89-2.36,4.8-3.62,8.19-3.62
	c2.13,0,4.09,0.24,5.27,0.71l2.6-14.4c-0.94-0.24-1.89-0.47-2.91-0.71c-0.94-0.24-1.89-0.24-3.15-0.24c-3.38,0-6.69,0.94-9.6,3.15
	c-2.91,1.89-5.27,5.51-7.16,10.31l0.71-12.44h-15.11l0.24,17.47v32.35H518.4L518.4,327.6z"/>
<path class="st1" d="M550.75,325.48c3.15,1.89,6.93,3.15,11.49,3.15c6.93,0,12.44-2.91,16.06-8.42l-0.47,7.4h15.11v-49.82h-10.78
	l-1.18,5.98c-1.18-2.13-3.15-3.86-5.51-5.04c-2.36-1.18-5.27-1.89-8.42-1.89c-4.8,0-9.13,1.18-12.91,3.62
	c-3.86,2.36-6.93,5.51-9.13,9.84c-2.36,4.09-3.38,9.13-3.38,14.64c0,4.57,0.71,8.89,2.36,12.44
	C545.24,320.68,547.6,323.51,550.75,325.48z M559.64,293.84c2.13-2.6,4.8-4.09,8.42-4.09c2.91,0,5.27,0.94,6.93,2.91
	c1.65,1.97,2.6,4.57,2.6,7.87c0,4.57-1.18,8.19-3.62,10.78c-2.36,2.6-5.27,4.09-8.66,4.09c-2.6,0-5.04-0.94-6.45-2.91
	c-1.65-1.89-2.36-4.8-2.36-8.42C556.5,300.06,557.68,296.67,559.64,293.84z"/>
<path class="st1" d="M606.87,309.9c0,5.51,1.65,10.07,5.27,13.69c3.62,3.38,8.42,5.04,14.64,5.04c6.69,0,11.96-1.42,15.11-4.09
	l-4.33-11.49c-1.42,0.94-2.91,1.65-4.09,2.13c-1.42,0.47-2.6,0.47-4.09,0.47c-2.36,0-4.33-0.71-5.51-1.89s-1.89-3.15-1.89-5.51
	l0.24-17.95h15.82v-12.51h-15.58v-10.31h-14.88v10.31h-8.42v12.2h8.19L606.87,309.9z"/>
<path class="st1" d="M655.51,325.48c4.09,2.13,8.89,3.15,14.4,3.15c4.8,0,8.89-0.71,12.2-2.36c3.15-1.42,5.75-3.62,7.87-6.22
	l-8.42-8.89c-1.42,1.42-3.15,2.6-5.04,3.38c-1.89,0.71-3.86,1.18-5.51,1.18c-3.86,0-6.93-0.71-9.13-2.36
	c-2.13-1.65-3.62-3.86-3.86-6.22h31.64c0.71-5.98,0.47-11.26-0.71-15.82c-1.42-4.56-3.86-8.19-7.16-10.55
	c-3.31-2.36-7.87-3.86-13.46-3.86c-4.8,0-9.13,1.18-12.91,3.38c-3.86,2.13-6.93,5.27-9.13,9.37c-2.13,4.09-3.38,8.66-3.38,13.93
	s1.18,9.6,3.38,13.46C648.27,320.44,651.42,323.28,655.51,325.48z M661.96,289.98c1.89-1.65,4.09-2.36,6.69-2.36s4.8,0.71,6.22,2.13
	s2.13,3.62,2.13,6.69h-18.73C658.81,293.84,660.07,291.64,661.96,289.98z"/>
<path class="st1" d="M714.7,328.55c2.36,0,4.33-0.24,6.45-0.94c1.89-0.71,3.62-1.42,4.56-2.36l-3.62-10.78
	c-0.94,0.71-2.36,0.94-3.86,0.94c-2.91,0-4.33-1.42-4.33-4.56v-55.88h-15.03v57.3c0,5.27,1.42,9.37,4.09,12.2
	C705.8,327.13,709.66,328.55,714.7,328.55z"/>
<path class="st1" d="M274.41,256.45c1.65,1.65,2.6,3.86,2.6,6.22c0,2.36-0.94,4.56-2.6,6.22s-4.09,2.6-6.93,2.6
	c-2.91,0-5.27-0.94-6.93-2.6c-1.65-1.65-2.6-3.86-2.6-6.22c0-2.36,0.71-4.57,2.36-6.22c1.65-1.65,4.09-2.6,6.93-2.6
	C270.32,253.78,272.76,254.72,274.41,256.45z"/>
<path class="st1" d="M319.2,276.76c-3.86,0-7.4,0.94-10.55,2.91c-3.15,1.89-5.75,4.8-7.87,8.42l0.71-10.78h-14.88v49.82h14.88
	c0-7.16,0.47-13.14,1.18-17.95c0.71-4.8,1.65-8.66,2.91-11.26c1.18-2.6,2.6-4.8,4.33-5.75c1.65-1.18,3.38-1.65,5.51-1.65
	c2.36,0,4.09,0.94,5.04,2.6c1.18,1.89,1.65,4.33,1.42,7.87l-0.24,26.37h15.11l0.24-27.31c0-7.4-1.42-13.14-4.33-17.24
	C329.51,278.96,325.26,276.76,319.2,276.76z"/>
<path class="st1" d="M376.97,315.17c-1.42,0.47-2.6,0.47-4.09,0.47c-2.36,0-4.33-0.71-5.51-1.89s-1.89-3.15-1.89-5.51l0.24-17.95
	h15.82v-12.51h-15.58v-10.31h-14.88v10.31h-8.42v12.2h8.19l-0.47,19.68c0,5.51,1.65,10.07,5.27,13.69
	c3.62,3.38,8.42,5.04,14.64,5.04c6.69,0,11.96-1.42,15.11-4.09l-4.33-11.49C379.64,313.91,378.23,314.62,376.97,315.17z"/>
<rect x="260.01" y="277.78" class="st1" width="15.11" height="49.82"/>
<path class="st1" d="M481.25,278.96l-1.18,5.98c-1.18-2.13-3.15-3.86-5.75-5.04c-2.6-1.18-5.27-1.89-8.66-1.89
	c-4.8,0-9.37,1.18-13.14,3.62c-3.86,2.36-6.93,5.51-9.13,9.6c-2.13,4.09-3.38,8.89-3.38,14.17c0,4.56,0.94,8.42,2.6,11.73
	c1.65,3.38,4.09,5.98,7.4,7.87c3.15,1.89,7.16,2.91,11.73,2.91c6.93,0,12.2-2.6,15.82-7.87v0.94c-0.24,5.27-1.65,9.13-3.86,11.73
	c-2.36,2.36-6.22,3.86-11.73,3.86c-3.15,0-5.98-0.24-8.66-0.94c-2.6-0.71-5.04-1.65-7.16-2.6l-3.62,12.67
	c1.42,0.94,3.38,1.65,5.51,2.36c2.13,0.47,4.33,0.94,6.69,1.42c2.36,0.24,4.56,0.47,6.45,0.47c6.22,0,11.73-1.18,16.53-3.38
	c4.8-2.13,8.42-5.51,10.78-10.07c2.6-4.57,3.86-10.07,3.86-17v-40.53H481.25L481.25,278.96z M475.51,307.93
	c-1.18,2.13-2.6,3.86-4.33,4.8c-1.89,1.18-3.86,1.65-6.22,1.65c-2.91,0-5.04-0.94-6.69-2.6c-1.65-1.89-2.36-4.33-2.36-7.63
	c0-3.86,0.94-6.93,3.15-9.37c2.13-2.36,5.04-3.86,8.66-3.86c2.91,0,5.27,0.94,6.93,2.6c1.65,1.65,2.6,4.09,2.6,7.16
	C477.16,303.36,476.45,305.8,475.51,307.93z"/>
<path class="st2" d="M179.49,316.82c-3.15,16.06-17.47,28.73-34,29.75c-17.24,1.18-33.53-7.87-39.75-24.95
	c-1.89-5.04-2.36-10.31-2.36-15.82c0-5.27,0-10.31,0-15.58c0-4.8,1.65-6.45,6.45-6.45c9.13,0,18.18,0,27.08,0c0,0,0,0,0-0.24
	c8.89,0,17.71,0,26.6,0c4.09,0,8.19,0.24,12.2,0.24c2.36,0,4.56,1.65,4.56,4.09C180.44,297.85,181.46,307.46,179.49,316.82z"/>
<path class="st2" d="M125.58,278.96c5.75,0.24,7.63-0.47,7.87-4.09c0.24-6.45,0.24-12.67,0-19.2c0-2.36-1.89-4.09-4.09-4.09
	c-1.42,0-2.6,0-4.09,0c-2.6,0-4.33,1.89-4.56,4.56c0,3.15,0,5.98,0,9.13c0,3.15,0,6.22,0,9.37
	C121.01,277.23,122.74,278.73,125.58,278.96z"/>
<path class="st2" d="M155.56,278.96c5.51,0,7.63-0.94,7.63-4.33c0-6.45,0-12.67,0-19.2c0-2.36-1.89-3.86-4.33-4.09
	c-1.18,0-2.6,0-3.86,0c-2.91,0-4.56,1.65-4.56,4.56c0,2.91,0,5.98,0,8.89c0,3.15,0,6.22,0,9.6
	C150.76,277.23,152.42,278.96,155.56,278.96z"/>
<g>
	<g>
		<g>
			<path class="st2" d="M742.95,275.82c4.33,0.24,5.98-0.47,5.98-3.15c0.24-4.8,0-9.84,0-14.64c0-1.65-1.42-3.15-3.15-3.15
				c-0.94,0-1.89,0-3.15,0c-2.13,0-3.38,1.42-3.38,3.62c0,2.36,0,4.56,0,6.93c0,2.36,0,4.8,0,7.16
				C739.65,274.63,741.06,275.82,742.95,275.82z"/>
		</g>
		<g>
			<path class="st2" d="M766.49,275.82c4.33,0,5.75-0.71,5.98-3.15c0-4.8,0-9.84,0-14.64c0-1.65-1.42-3.15-3.15-3.15
				c-0.94,0-1.89,0-2.91,0c-2.13,0-3.62,1.42-3.62,3.62c0,2.13,0,4.56,0,6.69c0,2.36,0,4.8,0,7.16
				C762.86,274.63,764.05,275.82,766.49,275.82z"/>
		</g>
		<path class="st1" d="M784.43,286.6c0-0.94,0-2.13,0-3.15c0-1.89-1.65-3.38-3.62-3.38h-10.55c0.47,5.98,1.18,16.76,0,22.27
			c-1.18,6.93-6.93,11.96-13.93,12.44c-7.4,0.47-12.91-2.91-15.58-10.07c-0.71-2.13-0.94-4.33-0.94-6.69
			c0-4.33,0.24-13.14,0.24-17.95h-10.47c-1.89,0-3.62,1.65-3.62,3.62v17.95c0.24,2.6,0.71,5.27,1.65,7.87
			c1.65,4.8,4.8,9.13,8.89,12.2c1.89,1.65,4.56,3.15,6.69,4.09c1.18,0.47,3.15,1.18,3.15,1.18c3.62,0.94,2.6,5.04,2.13,8.19
			c-0.24,2.13-1.18,4.09-2.36,5.75c-2.36,3.38-6.45,5.27-10.55,5.27H503.76v13.69h231.79c14.88,0,27.08-11.96,27.08-26.84v-5.51
			c10.55-2.6,19.2-11.26,21.33-22.04c0.47-2.36,0.71-5.27,0.71-8.42v-10.55h-0.24V286.6z"/>
	</g>
</g>
</svg>
