<?xml version="1.0" encoding="utf-8"?>
<!-- Generator: Adobe Illustrator 26.0.3, SVG Export Plug-In . SVG Version: 6.00 Build 0)  -->
<svg version="1.0" id="katman_1" xmlns="http://www.w3.org/2000/svg" xmlns:xlink="http://www.w3.org/1999/xlink" x="0px" y="0px"
	 viewBox="0 0 800 600" style="enable-background:new 0 0 800 600;" xml:space="preserve">
<style type="text/css">
	.st0{fill:#6860FF;}
	.st1{fill:#B4B0FF;}
	.st2{fill:#2821B5;}
	.st3{fill:#120D7B;}
</style>
<path class="st0" d="M202.3,245.9l23.2,41.6l-43.1-21.7l-21.7-43.1L202.3,245.9z"/>
<path class="st0" d="M182.4,265.7l31.7,61.9L149.2,299l-28.7-64.9L182.4,265.7z"/>
<path class="st1" d="M120.5,234.1l28.6,64.9l-56.1,56.1l-21.2-69.4L120.5,234.1z"/>
<path class="st1" d="M160.7,222.7l21.7,43.1l-41.9-21.4L160.7,222.7z"/>
<path class="st2" d="M225.5,287.5l-43.1-21.7l32,32L225.5,287.5z"/>
<path class="st3" d="M214.5,297.8l-32-32l21.4,41.8L214.5,297.8z"/>
<path class="st2" d="M149.2,299l64.9,28.6l-51.9,48.9l-69.4-21.2L149.2,299z"/>
<path class="st2" d="M261.2,338h14.3v-18.9l8.5-10.3l16.8,29.1h16.7l-23.9-40.8l23.3-28.1h-17.9l-23.6,28.3v-28.3h-14.3L261.2,338z"
	/>
<path class="st2" d="M338,339.1c2.9,0.1,5.8-0.5,8.5-1.8c2.4-1.2,4.4-3.1,5.6-5.5v6.2h12.9v-50.5h-13.9V317c0.1,2.6-0.8,5.1-2.6,7
	c-3.8,3.5-9.5,3.5-13.3,0c-1.8-1.9-2.7-4.4-2.6-7v-29.5h-13.9v30.6c-0.3,5.5,1.5,10.9,4.9,15.3C327.1,337.2,331.9,339.1,338,339.1z"
	/>
<path class="st2" d="M399.8,339.1c9.3,0.2,17.9-4.9,22.4-13c2.3-4.1,3.5-8.7,3.4-13.3c0.1-9.3-4.7-18-12.7-22.8
	c-3.9-2.4-8.4-3.6-13-3.5c-5.4-0.3-10.6,1.7-14.5,5.4V268h-13.9v70h12.9v-4.8c1.9,2,4.1,3.5,6.7,4.4
	C393.9,338.6,396.9,339.1,399.8,339.1z M398.2,326.6c-3.5,0.1-6.8-1.3-9.2-3.8c-4.7-5.9-4.7-14.2,0-20.1c2.4-2.6,5.7-4,9.2-3.9
	c3.6-0.1,7,1.3,9.4,4c4.9,5.7,4.9,14.2,0,19.9C405.2,325.3,401.7,326.8,398.2,326.6L398.2,326.6z"/>
<path class="st2" d="M455.3,339.1c4.7,0.1,9.4-1,13.6-3.3c3.6-2,6.5-5.2,8.1-9l-11.1-5.3c-1,1.7-2.4,3.1-4.2,4.1
	c-1.9,1-4.1,1.5-6.3,1.5c-3,0.1-6-0.9-8.3-2.9c-2.2-2-3.5-4.7-3.8-7.6h35.3c0.3-0.8,0.4-1.6,0.5-2.4c0.1-1,0.2-2,0.2-3
	c0.1-4.4-0.9-8.7-3-12.6c-1.9-3.7-4.8-6.8-8.4-9c-4.1-2.3-8.8-3.5-13.6-3.3c-4.5-0.1-9,1.1-12.9,3.4c-3.8,2.3-7,5.5-9.2,9.3
	c-2.3,4.1-3.4,8.8-3.3,13.5c-0.1,4.6,1.1,9.2,3.2,13.3c2.1,4,5.3,7.3,9.2,9.6C445.6,338,450.4,339.2,455.3,339.1z M454.4,297.5
	c2.6-0.1,5.1,0.8,7,2.5c1.9,1.7,3,4,3.2,6.5h-21c0.5-2.6,1.8-4.9,3.8-6.7C449.4,298.3,451.9,297.5,454.4,297.5L454.4,297.5z"/>
<path class="st2" d="M503.6,339.1c5.1,0.2,10.1-1.3,14.1-4.3c3.5-2.7,5.5-6.9,5.4-11.4c0.1-3.4-1.1-6.6-3.3-9.2
	c-2.6-2.8-5.9-4.7-9.6-5.6l-8-2.4c-3.6-1-5.5-2.6-5.5-4.5c0-1.2,0.5-2.3,1.5-3.1c1.3-0.8,2.8-1.2,4.3-1.1c2.3,0,4.6,0.6,6.6,1.9
	c1.9,1.1,3.3,2.9,4.1,5l10.3-4.8c-1.4-4.1-4.2-7.5-8-9.7c-3.9-2.4-8.4-3.6-12.9-3.5c-3.4-0.1-6.8,0.6-10,2c-2.7,1.1-5.1,3-6.7,5.5
	c-3.5,5.4-3.1,12.5,0.9,17.6c2.5,2.8,5.9,4.7,9.5,5.6l8.6,2.4c3.3,0.9,5,2.4,5,4.4c0,3-2,4.5-6.1,4.5c-2.6,0-5.2-0.8-7.4-2.3
	c-2.3-1.6-4.1-3.8-5.3-6.4l-10.2,4.8c1.5,4.4,4.4,8.2,8.3,10.6C493.4,337.9,498.5,339.2,503.6,339.1z"/>
<path class="st2" d="M527.7,338h13.9v-29.5c-0.1-2.6,0.8-5.1,2.6-6.9c3.7-3.6,9.6-3.6,13.3,0c1.8,1.9,2.7,4.4,2.6,6.9V338h13.9
	v-32.4c0.1-3.5-0.7-6.9-2.4-10c-1.6-2.8-3.9-5.2-6.7-6.7c-3.1-1.7-6.5-2.5-10-2.4c-2.6,0-5.2,0.5-7.7,1.5c-2.2,0.9-4.2,2.4-5.5,4.3
	V268h-13.9L527.7,338z"/>
<path class="st2" d="M604.4,339.1c4.8,0.1,9.4-1.1,13.6-3.4c4-2.2,7.3-5.4,9.7-9.3c2.5-4.1,3.8-8.8,3.7-13.6
	c0.1-4.8-1.2-9.5-3.7-13.6c-2.4-3.9-5.7-7.1-9.7-9.3c-4.2-2.3-8.8-3.5-13.6-3.4c-4.8-0.1-9.5,1.1-13.7,3.4c-4,2.2-7.4,5.4-9.8,9.3
	c-2.4,4.1-3.7,8.8-3.6,13.6c-0.1,4.8,1.2,9.5,3.6,13.6c2.4,3.9,5.8,7.1,9.8,9.3C594.9,338,599.6,339.2,604.4,339.1z M604.4,326.6
	c-3.5,0.1-6.9-1.3-9.2-3.9c-4.7-5.8-4.7-14.1,0-19.9c2.3-2.6,5.7-4.1,9.2-4c3.5-0.1,6.9,1.3,9.2,4c4.7,5.8,4.7,14.1,0,19.9
	C611.2,325.3,607.9,326.8,604.4,326.6L604.4,326.6z"/>
<path class="st2" d="M635.8,356.5h13.9v-22.4c1.8,1.7,4,3,6.4,3.8c2.6,0.8,5.3,1.2,8,1.2c9.3,0.2,17.9-4.9,22.4-13
	c2.3-4.1,3.5-8.7,3.4-13.3c0.1-9.3-4.7-18-12.7-22.8c-3.9-2.4-8.4-3.6-13-3.5c-6.7,0-11.9,2.1-15.4,6.4v-5.3h-12.9L635.8,356.5z
	 M662.5,326.6c-3.5,0.1-6.8-1.3-9.2-3.8c-4.7-5.9-4.7-14.2,0-20.1c2.4-2.6,5.7-4,9.2-3.9c3.6-0.1,7,1.3,9.4,4
	c4.9,5.7,4.9,14.2,0,19.9C669.5,325.3,666,326.8,662.5,326.6z"/>
<path class="st2" d="M708.2,268.4v3.2h-5.5v15h-3.8v-15h-5.5v-3.2H708.2z"/>
<path class="st2" d="M722.3,268.4h5.5v18.2h-3.5v-12.3c0-0.4,0-0.9,0-1.5c0-0.6,0-1.1,0-1.5l-3.5,15.3h-3.7l-3.4-15.3
	c0,0.3,0,0.8,0,1.5c0,0.6,0,1.1,0,1.5v12.3h-3.6v-18.2h5.5l3.3,14.4L722.3,268.4z"/>
</svg>
