<?xml version="1.0" encoding="utf-8"?>
<!-- Generator: Adobe Illustrator 26.5.0, SVG Export Plug-In . SVG Version: 6.00 Build 0)  -->
<svg version="1.0" id="katman_1" xmlns="http://www.w3.org/2000/svg" xmlns:xlink="http://www.w3.org/1999/xlink" x="0px" y="0px"
	 viewBox="0 0 1190.55 841.89" style="enable-background:new 0 0 1190.55 841.89;" xml:space="preserve">
<style type="text/css">
	.st0{clip-path:url(#SVGID_00000061460456876476601060000017330970314859930756_);}
	.st1{fill:#EC643E;}
	.st2{fill:#FDC408;}
	.st3{fill:#A4A14A;}
	.st4{fill:#010202;}
</style>
<g>
	<defs>
		<rect id="SVGID_1_" x="121" y="319.29" width="948" height="202.43"/>
	</defs>
	<clipPath id="SVGID_00000045599307319069515290000000625557010191119746_">
		<use xlink:href="#SVGID_1_"  style="overflow:visible;"/>
	</clipPath>
	<g style="clip-path:url(#SVGID_00000045599307319069515290000000625557010191119746_);">
		<path class="st1" d="M298.02,446.18h-31.29h-20.79h-5.13l-31.29,31.29l-31.29-31.29h-5.13h-20.79H121v31.29h44.25l22.13,22.13
			l22.13,22.13l22.13-22.13l22.12-22.13h44.26V446.18z"/>
		<path class="st2" d="M298.02,383.58H121v31.29h177.02V383.58z"/>
		<path class="st3" d="M298.02,321H121v31.29h177.02V321z"/>
		<path class="st4" d="M368.4,321h28.15v153.56H368.4V321z"/>
		<path class="st4" d="M440.37,470.18c-8.89-4.91-15.93-11.62-21.11-20.16c-5.2-8.53-7.79-17.92-7.79-28.15
			c0-10.24,2.59-19.62,7.79-28.15c5.19-8.53,12.22-15.25,21.11-20.16c8.88-4.91,18.52-7.36,28.9-7.36c10.38,0,20.01,2.45,28.9,7.36
			c8.88,4.91,15.92,11.62,21.11,20.16c5.19,8.53,7.79,17.92,7.79,28.15c0,10.23-2.6,19.62-7.79,28.15
			c-5.19,8.53-12.23,15.25-21.11,20.16c-8.89,4.91-18.52,7.36-28.9,7.36C458.89,477.54,449.25,475.09,440.37,470.18z M484.09,447.79
			c4.48-2.49,8.07-6.01,10.77-10.56c2.7-4.55,4.06-9.67,4.06-15.36c0-5.68-1.35-10.8-4.06-15.36c-2.7-4.55-6.29-8.07-10.77-10.56
			c-4.48-2.49-9.42-3.73-14.82-3.73c-5.41,0-10.34,1.25-14.82,3.73c-4.48,2.49-8.07,6.01-10.77,10.56
			c-2.71,4.55-4.05,9.67-4.05,15.36c0,5.69,1.34,10.81,4.05,15.36c2.7,4.55,6.29,8.07,10.77,10.56c4.48,2.49,9.41,3.73,14.82,3.73
			C474.67,451.52,479.61,450.28,484.09,447.79z"/>
		<path class="st4" d="M541.99,321h28.15v91.5l36.68-43.29h33.48l-41.37,48.84l44.36,56.52h-36.04l-37.11-48.84v48.84h-28.15V321z"
			/>
		<path class="st4" d="M669.85,470.72c-7.89-4.55-14.29-11.06-19.19-19.52c-4.91-8.46-7.36-18.24-7.36-29.33
			c0-10.09,2.35-19.41,7.04-27.94c4.69-8.53,11.09-15.28,19.2-20.26c8.1-4.98,16.99-7.46,26.66-7.46c6.82,0,13.04,1.14,18.66,3.41
			c5.62,2.27,9.92,5.33,12.9,9.17v-9.6h28.15v105.36h-28.15v-9.6c-4.41,4.12-9.1,7.25-14.08,9.38c-4.98,2.13-11.38,3.2-19.2,3.2
			C685.95,477.55,677.74,475.27,669.85,470.72z M721.14,443c5.26-5.69,7.89-12.72,7.89-21.11c0-8.39-2.63-15.43-7.89-21.11
			c-5.26-5.69-12.23-8.53-20.9-8.53c-8.67,0-15.64,2.85-20.9,8.53c-5.26,5.69-7.89,12.73-7.89,21.11c0,8.39,2.63,15.43,7.89,21.11
			c5.26,5.69,12.22,8.53,20.9,8.53C708.91,451.53,715.88,448.68,721.14,443z"/>
		<path class="st4" d="M776.38,321h28.15v153.56h-28.15V321z"/>
		<path class="st4" d="M826.51,349.57c-3.41-3.41-5.12-7.54-5.12-12.37c0-4.98,1.71-9.2,5.12-12.69c3.41-3.48,7.54-5.22,12.37-5.22
			c4.97,0,9.2,1.74,12.69,5.22c3.48,3.48,5.23,7.71,5.23,12.69c0,4.83-1.74,8.96-5.23,12.37c-3.48,3.41-7.72,5.12-12.69,5.12
			C834.04,354.69,829.92,352.98,826.51,349.57z M825.01,369.19h28.15v105.36h-28.15V369.19z"/>
		<path class="st4" d="M872.36,467.28l6.4-26.45h1.28c9.24,7.11,18.7,10.66,28.37,10.66c3.98,0,7.21-0.75,9.71-2.24
			c2.49-1.49,3.73-3.66,3.73-6.51c0-2.99-1.47-5.4-4.38-7.25c-2.92-1.85-8.36-4.12-16.31-6.83c-8.1-2.7-14.4-6.61-18.87-11.73
			c-4.48-5.12-6.72-11.16-6.72-18.13c0-9.81,3.66-17.7,10.98-23.68c7.32-5.97,16.6-8.96,27.83-8.96c5.69,0,10.73,0.53,15.15,1.6
			c4.4,1.07,8.6,2.81,12.58,5.22l1.07,26.87h-1.49c-5.12-3.27-9.67-5.72-13.65-7.36c-3.98-1.63-8.46-2.45-13.43-2.45
			c-3.56,0-6.48,0.71-8.74,2.13c-2.28,1.42-3.41,3.27-3.41,5.55c0,2.99,1.42,5.44,4.27,7.36c2.84,1.92,8.17,4.23,15.99,6.93
			c8.95,2.99,15.74,6.61,20.37,10.88c4.62,4.26,6.93,10.88,6.93,19.83c0,7.39-1.85,13.72-5.55,18.98
			c-3.7,5.26-8.57,9.21-14.61,11.84c-6.04,2.63-12.69,3.94-19.94,3.94C895.25,477.52,882.74,474.11,872.36,467.28z"/>
		<path class="st4" d="M989.66,470.06c-8.82-4.98-15.74-11.76-20.79-20.37c-5.05-8.6-7.58-18.16-7.58-28.69
			c0-10.23,2.38-19.52,7.15-27.83c4.77-8.32,11.38-14.89,19.84-19.73c8.45-4.83,18.02-7.25,28.68-7.25c10.8,0,20.16,2.53,28.05,7.57
			c7.88,5.05,13.86,11.76,17.91,20.16c4.05,8.39,6.08,17.42,6.08,27.09v8.32h-80.84c1.71,7.97,5.37,14.01,10.98,18.13
			c5.62,4.12,13.05,6.18,22.29,6.18c14.07,0,26.37-4.62,36.89-13.86h2.99l-1.07,26.66c-6.4,3.7-13.15,6.47-20.26,8.32
			c-7.11,1.85-13.94,2.77-20.48,2.77C1008.43,477.53,998.48,475.04,989.66,470.06z M1040.85,410.13c-0.71-6.4-3.38-11.41-8-15.03
			c-4.62-3.62-10.27-5.44-16.95-5.44c-6.54,0-12.27,1.74-17.17,5.22c-4.9,3.48-8.21,8.57-9.92,15.25H1040.85z"/>
	</g>
</g>
</svg>
