<?xml version="1.0" encoding="utf-8"?>
<!-- Generator: Adobe Illustrator 24.3.0, SVG Export Plug-In . SVG Version: 6.00 Build 0)  -->
<svg version="1.0" id="katman_1" xmlns="http://www.w3.org/2000/svg" xmlns:xlink="http://www.w3.org/1999/xlink" x="0px" y="0px"
	 viewBox="0 0 1155.56 844.83" style="enable-background:new 0 0 1155.56 844.83;" xml:space="preserve">
<path d="M188.09,600.46c-29.8-1.18-54.17-9.34-73.23-24.48c-3.64-2.89-12.31-11.57-15.21-15.22c-7.73-9.72-12.98-19.18-16.49-29.67
	c-10.79-32.31-5.23-74.7,15.88-121.22c18.08-39.83,45.97-79.34,94.63-134.05c7.17-8.05,28.52-31.6,28.65-31.6
	c0.05,0-1.11,2.02-2.58,4.47c-12.65,21.19-23.48,46.16-29.38,67.77c-9.47,34.68-8.33,64.44,3.35,87.52
	c8.06,15.9,21.87,29.67,37.4,37.28c27.19,13.32,66.99,14.42,115.61,3.22c3.35-0.78,169.19-44.8,368.55-97.84
	c199.36-53.04,362.49-96.4,362.52-96.37c0.06,0.05-463.16,198.26-703.63,301.09c-38.08,16.28-48.27,20.39-66.17,26.68
	C262.22,594.11,221.22,601.78,188.09,600.46L188.09,600.46z"/>
</svg>
