<?xml version="1.0" encoding="utf-8"?>
<!-- Generator: Adobe Illustrator 24.3.0, SVG Export Plug-In . SVG Version: 6.00 Build 0)  -->
<svg version="1.0" id="katman_1" xmlns="http://www.w3.org/2000/svg" xmlns:xlink="http://www.w3.org/1999/xlink" x="0px" y="0px"
	 viewBox="0 0 523 373" style="enable-background:new 0 0 523 373;" xml:space="preserve">
<style type="text/css">
	.st0{fill-rule:evenodd;clip-rule:evenodd;fill:#6C04F4;}
</style>
<g>
	<path d="M78.6,143.72c10,0,18.35,3.35,25.05,10.06s10.06,15.02,10.06,24.96c0,9.93-3.35,18.25-10.06,24.96S88.6,213.74,78.6,213.74
		c-9.99,0-18.33-3.34-25-10.01c-6.67-6.67-10.01-15.01-10.01-25c0-9.93,3.32-18.25,9.96-24.96
		C60.19,147.07,68.54,143.72,78.6,143.72z M54.3,178.73c0,6.95,2.36,12.85,7.08,17.69c4.72,4.84,10.46,7.26,17.23,7.26
		c6.83,0,12.6-2.39,17.32-7.17c4.72-4.78,7.08-10.71,7.08-17.79c0-6.95-2.36-12.85-7.08-17.69c-4.72-4.84-10.49-7.26-17.32-7.26
		c-6.83,0-12.59,2.41-17.27,7.22C56.64,165.8,54.3,171.71,54.3,178.73z"/>
	<path d="M118.96,166.81h10.34v7.54c3.23-5.84,8.38-8.75,15.46-8.75c6.27,0,11.39,2.2,15.37,6.61c3.97,4.41,5.96,10.12,5.96,17.14
		c0,7.02-2.02,12.79-6.05,17.32c-4.04,4.53-9.22,6.8-15.55,6.8c-5.22,0-8.74-0.93-10.57-2.79c-1.83-1.86-2.96-3.1-3.4-3.72
		c-0.43-0.62-0.84-1.27-1.21-1.96v24.49l-10.34,0.09L118.96,166.81z M129.02,189.44c0,4.47,1.26,8.12,3.77,10.94
		c2.51,2.82,5.79,4.24,9.82,4.24c3.85,0,7.02-1.4,9.5-4.19c2.48-2.79,3.72-6.39,3.72-10.8c0-4.41-1.24-8.01-3.72-10.8
		c-2.48-2.79-5.65-4.19-9.5-4.19c-4.1,0-7.39,1.37-9.87,4.1C130.26,181.46,129.02,185.03,129.02,189.44z"/>
	<path d="M183.51,193.26c0.62,3.72,2.1,6.67,4.42,8.85c2.33,2.17,5.23,3.26,8.71,3.26c2.54,0,4.98-0.73,7.31-2.19
		c2.33-1.46,4.3-3.49,5.91-6.1l8.19,5.12c-2.73,3.91-5.8,6.78-9.22,8.61c-3.41,1.83-7.48,2.75-12.2,2.75
		c-7.02,0-12.73-2.17-17.14-6.52c-4.41-4.35-6.61-10.06-6.61-17.13c0-7.08,2.22-12.9,6.66-17.46c4.44-4.56,10.07-6.84,16.9-6.84
		c6.77,0,12.28,2.25,16.53,6.75c4.25,4.5,6.38,10.32,6.38,17.46l-0.19,3.45H183.51z M183.51,185.72h24.96c0-3.66-1.13-6.6-3.4-8.8
		c-2.27-2.2-5.17-3.31-8.71-3.31c-3.35,0-6.16,1.06-8.43,3.17C185.67,178.89,184.2,181.87,183.51,185.72L183.51,185.72z"/>
	<path d="M226.9,167h10.34v6.98c3.42-5.59,8.26-8.38,14.53-8.38c2.3,0,4.47,0.43,6.52,1.3c2.05,0.87,3.77,2.08,5.17,3.63
		c1.4,1.55,2.34,3.24,2.84,5.07c0.5,1.83,0.75,4.49,0.75,7.96v28.68H256.7v-26.07c0-1.99-0.12-3.77-0.37-5.35
		c-0.25-1.58-1.2-3.01-2.84-4.28s-3.55-1.91-5.73-1.91c-3.29,0-5.87,1.15-7.73,3.45c-1.86,2.3-2.79,5.46-2.79,9.5v24.68H226.9
		L226.9,167z"/>
	<path d="M278.58,145.11l15.55,44.79c0.87,2.73,1.49,6.11,1.86,10.15c0.37-4.41,1.02-7.79,1.96-10.15l15.46-44.79h11.64
		l-24.68,67.14h-8.66l-24.68-67.14H278.58z"/>
	<path d="M328.7,145.11h10.8v67.14h-10.8V145.11z"/>
	<path d="M348.09,145.11h9.19l33.86,45.07c1.4,1.86,2.86,4.78,4.37,8.75c-0.41-2.17-0.76-4.27-1.05-6.29
		c-0.29-2.02-0.44-3.37-0.44-4.05v-43.49h10.15v67.14h-8.92l-34.3-45.44c-1.46-1.86-2.89-4.62-4.29-8.29l0.44,2.14l0.35,2.33
		c0.52,3.1,0.79,4.87,0.79,5.31v43.95h-10.15L348.09,145.11z"/>
	<path d="M444.44,143.53c9.99,0,18.35,3.35,25.05,10.06s10.06,15.02,10.06,24.96c0,9.93-3.35,18.25-10.06,24.96
		s-15.06,10.06-25.05,10.06c-9.99,0-18.33-3.34-25-10.01c-6.67-6.67-10.01-15.01-10.01-25c0-9.93,3.32-18.25,9.96-24.96
		C426.03,146.88,434.38,143.53,444.44,143.53L444.44,143.53z M420.13,178.54c0,6.95,2.36,12.85,7.08,17.69
		c4.72,4.84,10.46,7.26,17.23,7.26c6.83,0,12.6-2.39,17.32-7.17c4.72-4.78,7.08-10.71,7.08-17.79c0-6.95-2.36-12.85-7.08-17.69
		c-4.72-4.84-10.49-7.26-17.32-7.26c-6.83,0-12.59,2.41-17.27,7.22C422.48,165.62,420.13,171.53,420.13,178.54z"/>
</g>
<path class="st0" d="M458.71,173.95c0.6,1.61,0.93,3.36,0.93,5.18c0,8.23-6.68,14.91-14.91,14.91c-8.23,0-14.91-6.68-14.91-14.91
	c0-8.23,6.68-14.91,14.91-14.91c1.82,0,3.57,0.33,5.18,0.93c-1.85,1.12-3.09,3.16-3.09,5.49c0,3.54,2.87,6.41,6.41,6.41
	C455.54,177.05,457.58,175.81,458.71,173.95z"/>
<path class="st0" d="M91.63,173.95c0.6,1.61,0.93,3.36,0.93,5.18c0,8.23-6.68,14.91-14.91,14.91s-14.91-6.68-14.91-14.91
	c0-8.23,6.68-14.91,14.91-14.91c1.82,0,3.57,0.33,5.18,0.93c-1.85,1.12-3.09,3.16-3.09,5.49c0,3.54,2.87,6.41,6.41,6.41
	C88.47,177.05,90.51,175.81,91.63,173.95z"/>
</svg>
