<?xml version="1.0" encoding="utf-8"?>
<!-- Generator: Adobe Illustrator 26.5.0, SVG Export Plug-In . SVG Version: 6.00 Build 0)  -->
<svg version="1.0" id="katman_1" xmlns="http://www.w3.org/2000/svg" xmlns:xlink="http://www.w3.org/1999/xlink" x="0px" y="0px"
	 viewBox="0 0 606 445" style="enable-background:new 0 0 606 445;" xml:space="preserve">
<style type="text/css">
	.st0{fill:#1C1C1C;}
	.st1{fill:#FF6254;}
</style>
<g>
	<path class="st0" d="M223.77,196.81l-0.52-0.01l0,0l-18.82,0c-0.72,0-1.29,0.58-1.29,1.31v47.67c0,0.73,0.57,1.31,1.29,1.31h6.58
		c0.72,0,1.29-0.58,1.29-1.31v-10.35l11.26,0l0,0l0.61-0.02l0,0l0.76-0.06c2.76-0.26,7.66-1.29,11.55-5.02
		c3.58-3.5,5.3-8.16,5.3-14.14c0-5.98-1.86-10.79-5.3-14.14c-3.22-3.19-7.06-4.44-9.88-4.93l-0.95-0.14
		c-0.15-0.02-0.3-0.04-0.44-0.05l-0.79-0.07l0,0L223.77,196.81L223.77,196.81z M230.05,223.47c-1.34,1.36-3.28,1.98-4.76,2.25
		l-0.75,0.12l0,0l-0.62,0.07l0,0l-0.73,0.04l0,0H212.3v-19.82l10.99,0l0,0l0.69,0.03l0,0l0.65,0.07c1.54,0.19,3.88,0.76,5.56,2.38
		c1.57,1.6,2.43,4.08,2.43,7.43C232.63,219.38,231.77,221.86,230.05,223.47z M278.71,237.75h-19.32V198.1
		c0-0.73-0.57-1.31-1.29-1.31h-6.58c-0.72,0-1.29,0.58-1.29,1.31v47.67c0,0.73,0.57,1.31,1.29,1.31h27.34
		c0.86,0,1.57-0.58,1.57-1.31v-6.71C280.43,238.33,279.71,237.75,278.71,237.75z M387.34,196.79h-6.58c-0.72,0-1.29,0.58-1.29,1.31
		V229l-23.47-31.78c-0.29-0.29-0.57-0.44-0.86-0.44h-6.58c-0.72,0-1.29,0.58-1.29,1.31v47.67c0,0.73,0.57,1.31,1.29,1.31h6.58
		c0.72,0,1.29-0.58,1.29-1.31v-30.17l23.47,30.9l0.14,0.15c0.14,0.15,0.43,0.29,0.72,0.29h6.73c0.72,0,1.29-0.58,1.29-1.31V198.1
		C388.63,197.37,388.05,196.79,387.34,196.79z M429.56,237.75h-19.32V198.1c0-0.73-0.57-1.31-1.29-1.31h-6.58
		c-0.72,0-1.29,0.58-1.29,1.31v47.67c0,0.73,0.57,1.31,1.29,1.31h27.33c0.86,0,1.58-0.58,1.58-1.31v-6.71
		C431.13,238.33,430.42,237.75,429.56,237.75z M504.69,197.08c-7.3-1.02-14.74,1.46-18.32,6.12c-2.86,3.64-3.44,8.45-1.43,13.26
		c1.99,5.2,6.9,7.64,10.88,8.95l1.16,0.36c0.19,0.06,0.37,0.11,0.55,0.16l3.72,1.02c2.43,0.73,5.44,1.89,6.3,3.94
		c0.86,2.19,0.29,3.35-0.14,3.94c-1.62,2.06-5.39,3.21-9.17,2.85l-0.71-0.08c-1.19-0.13-3.72-0.77-5.45-2.47l-0.42-0.45
		c-0.51-0.65-1.24-0.95-2-0.7l-5.3,2.16c-1.15,0.44-1.58,1.89-1,2.92c2.43,4.23,7.01,7,12.74,7.87c1.15,0.15,2.29,0.29,3.44,0.29
		c6.15,0,11.88-2.33,15.03-6.41c2.86-3.64,3.44-8.45,1.43-13.26c-2.29-5.69-7.87-8.16-12.17-9.33l-0.16-0.07
		c-0.09-0.04-0.2-0.07-0.27-0.07l-3.87-1.17c-2.43-0.73-5.44-1.9-6.3-3.94c-0.86-2.19-0.29-3.35,0.14-3.94
		c1.72-2.19,5.87-3.35,9.87-2.77c1.29,0.15,4.29,0.87,5.87,3.06c0.57,0.73,1.43,0.87,2.15,0.58l5.15-2.04
		c1.15-0.44,1.58-1.75,0.86-2.77C515,200.73,510.42,197.81,504.69,197.08z M544.62,206.26c1.29,0.15,4.29,0.87,5.87,3.06
		c0.57,0.73,1.43,0.87,2.15,0.58l5.15-2.04c1.05-0.4,1.5-1.54,1.02-2.51l-0.16-0.26c-2.43-4.23-7.01-7.14-12.74-8.02
		c-7.3-1.02-14.74,1.46-18.32,6.12c-2.86,3.64-3.44,8.45-1.43,13.26c1.99,5.2,6.9,7.64,10.88,8.95l1.16,0.36
		c0.19,0.06,0.37,0.11,0.55,0.16l3.72,1.02c2.43,0.73,5.44,1.89,6.3,3.94c0.86,2.19,0.29,3.35-0.14,3.94
		c-1.62,2.06-5.39,3.21-9.17,2.85l-0.71-0.08c-1.19-0.13-3.72-0.77-5.45-2.47l-0.42-0.45c-0.51-0.65-1.24-0.95-2-0.7l-5.3,2.16
		c-1.14,0.44-1.57,1.89-1,2.92c2.43,4.23,7.01,7,12.74,7.87c1.15,0.15,2.29,0.29,3.43,0.29c6.16,0,11.88-2.33,15.03-6.41
		c2.86-3.64,3.43-8.45,1.43-13.26c-2.29-5.69-7.87-8.16-12.17-9.33h-0.43l0,0l-4.39-1.33l0,0l-1.09-0.37
		c-2.01-0.74-4.01-1.8-4.68-3.4c-0.72-1.85-0.43-2.97-0.06-3.62l0.2-0.31l0,0C536.47,206.85,540.62,205.68,544.62,206.26z
		 M318.21,197.66c-0.24-0.49-0.58-0.77-1.01-0.85l-0.34-0.02l0,0h-7.38c-0.57,0-1,0.29-1.29,0.87l-20.75,47.52
		c-0.43,1.02,0.29,2.04,1.29,2.04h7.16c0.57,0,1-0.29,1.29-0.87l4.44-10.06h23.19l4.44,10.06c0.29,0.58,0.72,0.87,1.29,0.87h7.16
		c1,0,1.72-1.02,1.29-2.04L318.21,197.66z M305.76,226.82l7.44-17.2l7.44,17.2H305.76z M473.5,196.64h-31.92
		c-0.86,0-1.43,0.73-1.43,1.46v47.37c0,0.87,0.72,1.46,1.43,1.46h31.92c0.86,0,1.43-0.73,1.43-1.46v-6.41
		c0-0.87-0.72-1.46-1.43-1.46h-24.19v-10.93h16.75c0.86,0,1.43-0.73,1.43-1.46v-6.41c0-0.87-0.72-1.46-1.43-1.46h-16.75v-11.22
		h24.19c0.86,0,1.43-0.73,1.43-1.46v-6.41C474.93,197.37,474.35,196.64,473.5,196.64z"/>
	<path class="st1" d="M101.53,231.77l39.79,16.62l-89.31,37.02c-3.42,1.39-4.88,0.39-5-3.15l-0.01-0.5v-25.66
		c0-1.46,0.83-2.79,2.05-3.46l0.38-0.18L101.53,231.77z M157.2,204.95v33.96l-40.22-15.74c-0.57-0.15-0.86-0.73-0.86-1.17
		c0-0.36,0.2-0.83,0.6-1.06L157.2,204.95z M47,162.25c0-3.76,1.31-5,4.55-3.82l0.45,0.18l89.31,37.17l-39.79,16.47l-52.1-20.55
		c-1.3-0.53-2.25-1.78-2.41-3.32L47,187.9V162.25z"/>
</g>
</svg>
