<?xml version="1.0" encoding="utf-8"?>
<!-- Generator: Adobe Illustrator 26.0.3, SVG Export Plug-In . SVG Version: 6.00 Build 0)  -->
<svg version="1.0" id="katman_1" xmlns="http://www.w3.org/2000/svg" xmlns:xlink="http://www.w3.org/1999/xlink" x="0px" y="0px"
	 viewBox="0 0 800 600" style="enable-background:new 0 0 800 600;" xml:space="preserve">
<style type="text/css">
	.st0{fill:url(#SVGID_1_);}
	.st1{fill:url(#SVGID_00000084504169581289634400000004981402872143679413_);}
	.st2{fill-rule:evenodd;clip-rule:evenodd;fill:url(#SVGID_00000167384014495202193460000015490608168731830949_);}
	.st3{fill:#6D4AFF;}
	.st4{fill:#1B1340;}
</style>
<linearGradient id="SVGID_1_" gradientUnits="userSpaceOnUse" x1="138.5559" y1="419.0053" x2="149.221" y2="268.9164" gradientTransform="matrix(1 0 0 -1 -20.9449 604.3622)">
	<stop  offset="0.9887" style="stop-color:#6D4AFF"/>
	<stop  offset="1" style="stop-color:#000000"/>
</linearGradient>
<path class="st0" d="M57.3,342v-85.4c0-7.9,6.4-14.2,14.2-14.2h26.7c2.7,0,5.3,0.9,7.5,2.5l8.9,6.6c2.2,1.6,4.8,2.5,7.5,2.5h58.5
	c7.9,0,14.2,6.4,14.2,14.2V342c0,7.9-6.4,14.2-14.2,14.2H71.5C63.7,356.3,57.3,349.9,57.3,342z"/>
<radialGradient id="SVGID_00000101078778511061787190000009751109745069278890_" cx="1.6229" cy="601.0599" r="0.3954" gradientTransform="matrix(-220.5854 450.7487 701.2654 343.1822 -420974.25 -206812.1094)" gradientUnits="userSpaceOnUse">
	<stop  offset="0.5561" style="stop-color:#FF62C0;stop-opacity:0"/>
	<stop  offset="0.9944" style="stop-color:#FF62C0"/>
</radialGradient>
<path style="fill:url(#SVGID_00000101078778511061787190000009751109745069278890_);" d="M57.3,342v-85.4c0-7.9,6.4-14.2,14.2-14.2
	h26.7c2.7,0,5.3,0.9,7.5,2.5l8.9,6.6c2.2,1.6,4.8,2.5,7.5,2.5h58.5c7.9,0,14.2,6.4,14.2,14.2V342c0,7.9-6.4,14.2-14.2,14.2H71.5
	C63.7,356.3,57.3,349.9,57.3,342z"/>
<linearGradient id="SVGID_00000163054561774353156760000004037021244685740725_" gradientUnits="userSpaceOnUse" x1="76.4223" y1="421.3912" x2="248.4406" y2="232.3688" gradientTransform="matrix(1 0 0 -1 -20.9449 604.3622)">
	<stop  offset="0" style="stop-color:#6D4AFF"/>
	<stop  offset="0.3593" style="stop-color:#AE8CFF"/>
	<stop  offset="1" style="stop-color:#F8CCFF"/>
</linearGradient>
<path style="fill-rule:evenodd;clip-rule:evenodd;fill:url(#SVGID_00000163054561774353156760000004037021244685740725_);" d="
	M122.2,253.9h58.5c7.9,0,14.2,6.4,14.2,14.2V342c0,7.9-6.4,14.2-14.2,14.2h-15V282c0-6.1-5-11.1-11.1-11.1l-53.9,0.3
	c-2.3,0-4.6-0.7-6.5-2l-12-8.5c-1.9-1.3-4.1-2-6.4-2H57.3v-2c0-7.9,6.4-14.2,14.2-14.2h26.7c2.7,0,5.3,0.9,7.5,2.5l8.9,6.6
	C116.8,253,119.5,253.9,122.2,253.9z"/>
<path class="st3" d="M575.9,270.1c5.2,2.9,9.6,7.1,12.5,12.3c3,5.3,4.5,11.3,4.5,17.3c0,6.1-1.6,12-4.5,17.3
	c-3,5.2-7.3,9.5-12.5,12.4c-5.6,3.1-11.9,4.6-18.3,4.5h-22.5v-68.4h22.5C564,265.4,570.3,267,575.9,270.1z M558.4,321.8
	c3.8,0.1,7.6-0.9,10.9-2.8c3.3-1.9,6-4.7,7.8-8.1c1.8-3.4,2.8-7.2,2.8-11.1c0-3.9-0.9-7.7-2.8-11.1c-1.8-3.3-4.4-6-7.6-7.9
	c-3.4-2-7.2-3-11.1-2.9h-10.4v43.9L558.4,321.8z"/>
<path class="st3" d="M598.5,306.1c-0.2-5.4,1.6-10.6,5.2-14.7c3.5-3.8,8.4-5.6,14.7-5.6c2.1,0,4.2,0.2,6.3,0.7V298
	c-1,0-2.1-0.1-3.4-0.1c-3.5,0-6,0.8-7.6,2.4c-0.9,1-1.5,2.2-1.9,3.4c-0.4,1.3-0.6,2.6-0.5,3.9v26.3h-12.7L598.5,306.1z"/>
<path class="st3" d="M629.8,277c-0.8-0.7-1.4-1.5-1.8-2.5c-0.4-0.9-0.6-2-0.6-3c0-1,0.2-2.1,0.6-3c0.4-0.9,1-1.8,1.8-2.5
	c0.7-0.7,1.6-1.3,2.6-1.7c1-0.4,2-0.6,3-0.6c1,0,2.1,0.2,3,0.6c1,0.4,1.8,1,2.5,1.7c0.8,0.7,1.4,1.6,1.8,2.5c0.4,0.9,0.6,2,0.6,3
	c0,1-0.2,2-0.6,3c-0.4,0.9-1,1.8-1.8,2.5c-0.7,0.7-1.6,1.3-2.6,1.7c-1,0.4-2,0.6-3,0.6c-1,0-2.1-0.2-3-0.6
	C631.5,278.3,630.6,277.8,629.8,277z M641.8,333.9h-12.7v-47.1h12.7V333.9z"/>
<path class="st3" d="M662.1,333.9l-17.9-47.1h13.3l8.2,24.1c1.3,4.2,2,6.7,2.2,7.6h0.2c0.6-2.3,1.4-4.8,2.3-7.6l8.2-24.1h13.4
	l-17.9,47.1H662.1z"/>
<path class="st3" d="M738.6,314.6H703c0.6,2.9,2.1,5.4,4.3,7.3c2.2,1.7,5,2.6,7.8,2.6c2.3,0.1,4.5-0.3,6.6-1.2
	c1.6-0.8,3-2.1,3.9-3.7h11.7c-1.2,4.7-4.2,8.7-8.2,11.4c-4.1,2.6-8.9,4-13.7,4c-4.5,0.1-8.9-1-12.8-3.2c-3.6-2-6.6-5.1-8.6-8.8
	c-2.1-3.9-3.1-8.2-3.1-12.7c-0.1-4.4,1-8.8,3.1-12.7c2-3.7,5-6.7,8.6-8.8c3.8-2.1,8.1-3.2,12.5-3.1c4.3-0.1,8.5,1.1,12.1,3.2
	c3.6,2.1,6.5,5.2,8.4,8.8c2.1,3.8,3.1,8.2,3.1,12.5C738.8,311.8,738.7,313.2,738.6,314.6z M707.2,298.9c-2.2,1.8-3.7,4.2-4.3,6.9
	h23.9c-0.4-2.7-1.7-5.1-3.9-6.8c-2.2-1.8-5-2.8-7.9-2.7C712.3,296.2,709.5,297.1,707.2,298.9z"/>
<path class="st4" d="M272.4,265.4h-31.6v68.4h12.5v-17c0-0.8,0.2-1.6,0.5-2.4c0.3-0.8,0.8-1.4,1.4-2c0.6-0.6,1.3-1,2-1.4
	c0.8-0.3,1.6-0.5,2.4-0.5h12.8c6,0,11.7-2.4,15.9-6.6c4.2-4.2,6.6-9.9,6.6-15.9c0-3-0.5-5.9-1.7-8.7c-1.1-2.7-2.8-5.2-4.9-7.4
	c-2.1-2.1-4.6-3.8-7.3-4.9C278.3,266,275.3,265.4,272.4,265.4z M282.2,287.9c0,2.8-1.1,5.5-3.1,7.5c-2,2-4.7,3.1-7.5,3.1h-18.2
	v-21.4h18.2c1.4,0,2.8,0.3,4.1,0.8c1.3,0.5,2.5,1.3,3.5,2.3c1,1,1.8,2.2,2.3,3.5C281.9,285,282.2,286.4,282.2,287.9L282.2,287.9z"/>
<path class="st4" d="M296.8,333.8v-27.1c0-11.1,6.5-19.9,19.4-19.9c2.1,0,4.1,0.2,6.2,0.7v11.2c-1.4-0.1-2.7-0.1-3.3-0.1
	c-6.9,0-9.8,3.1-9.8,9.5v25.8H296.8z"/>
<path class="st4" d="M326.2,310.7c0-13.6,10.3-24,24.6-24s24.5,10.4,24.5,24s-10.3,24.1-24.6,24.1
	C336.4,334.8,326.2,324.4,326.2,310.7z M363.1,310.7c0-7.7-5.2-13.2-12.3-13.2c-7.1,0-12.3,5.5-12.3,13.2s5.2,13.2,12.3,13.2
	C357.9,324,363,318.6,363.1,310.7L363.1,310.7z"/>
<path class="st4" d="M411.3,297.6h-13.4v17.1c0,6,2.2,8.7,8.3,8.7c0.6,0,2.1,0,3.9-0.1v10.1c-2.4,0.7-4.8,1.1-7.3,1.1
	c-10.4,0-17.4-6.3-17.4-18.1v-18.8h-8.3v-9.8h2.1c1.7,0,3.2-0.7,4.4-1.8c1.2-1.2,1.8-2.8,1.8-4.4v-9.4h12.4v15.6h13.4L411.3,297.6z"
	/>
<path class="st4" d="M415,310.7c0-13.6,10.3-24,24.6-24c14.3,0,24.6,10.4,24.6,24s-10.3,24.1-24.6,24.1
	C425.3,334.8,415,324.4,415,310.7z M452,310.7c0-7.7-5.2-13.2-12.3-13.2c-7.1,0-12.3,5.5-12.3,13.2s5.2,13.2,12.3,13.2
	C446.8,324,452,318.6,452,310.7z"/>
<path class="st4" d="M470.7,333.7v-26.1c0-12.1,7.7-20.9,21.6-20.9c13.8,0,21.4,8.7,21.4,20.9v26.1h-12.3v-25.2c0-6.8-3-11-9.1-11
	c-6.1,0-9.1,4.2-9.1,11v25.2H470.7z"/>
</svg>
