<?xml version="1.0" encoding="utf-8"?>
<!-- Generator: Adobe Illustrator 26.0.3, SVG Export Plug-In . SVG Version: 6.00 Build 0)  -->
<svg version="1.0" id="katman_1" xmlns="http://www.w3.org/2000/svg" xmlns:xlink="http://www.w3.org/1999/xlink" x="0px" y="0px"
	 viewBox="0 0 600 450" style="enable-background:new 0 0 600 450;" xml:space="preserve">
<style type="text/css">
	.st0{fill:#010202;}
</style>
<g id="layer1" transform="translate(10.200939,34.631347)">
	<g id="g48032" transform="matrix(1.8395583,0,0,1.835403,2.853128,49.08184)">
		<path id="path15936" class="st0" d="M35.5,85.8c2.5,1.3,6.2,2.6,10.6,2.6c3.1,0,6.6-0.6,6.6-3.3c0-6.3-18.3-2.7-18.3-15.5
			c0-8.5,8-10.6,15.3-10.6c4.7,0,8.3,0.8,11.1,1.6L60,68.1c-2.5-1-5.8-2.1-9.4-2.1c-2.4,0-6.2,0.2-6.2,3.2c0,5.6,18.4,2.7,18.4,15
			c0,9.1-8.5,11.2-16.5,11.2c-4.9,0-9.3-1-11.8-1.7L35.5,85.8z"/>
		<path id="path15940" class="st0" d="M95.7,59.6H65.3v7.1h10.4v28.1h9.6V66.7h10.4V59.6z"/>
		<path id="path15944" class="st0" d="M266.6,59.6l-7,14.1l-7.1-14.1h-11.1l13.4,21.9v13.3h9.6V81.5l13.3-21.9H266.6z"/>
		<path id="path15948" class="st0" d="M137.3,59.6v35.2h9.3v-19l15.7,19h7.9v-5.3l-25-29.9H137.3z"/>
		<path id="path15952" class="st0" d="M170.2,77.4V59.6h-14.8L170.2,77.4z"/>
		<path id="path15956" class="st0" d="M220.4,80.5h15.2v-7h-15.2v-7h16.7v-6.9h-26.6v35.2h27.2v-7h-17.3V80.5z"/>
		<path id="path15960" class="st0" d="M188.9,59.6H179v35.2h25.7v-7.3h-15.8V59.6z"/>
		<path id="path15964" class="st0" d="M121.8,94.8H132l-13.5-35.2h-11.2L94,94.8h9.4l2.5-7h13.6L121.8,94.8z M108.1,81.1l4.7-14.1
			l4.5,14.1H108.1z"/>
	</g>
</g>
</svg>
