<?xml version="1.0" encoding="utf-8"?>
<!-- Generator: Adobe Illustrator 24.3.0, SVG Export Plug-In . SVG Version: 6.00 Build 0)  -->
<svg version="1.0" id="katman_1" xmlns="http://www.w3.org/2000/svg" xmlns:xlink="http://www.w3.org/1999/xlink" x="0px" y="0px"
	 viewBox="0 0 592 429" style="enable-background:new 0 0 592 429;" xml:space="preserve">
<style type="text/css">
	.st0{fill:url(#SVGID_1_);}
	.st1{fill:url(#SVGID_2_);}
</style>
<path d="M201.09,208.97c8.43,1.34,16.71,7.21,16.58,15.91c0,5.35-2.27,10.29-6.42,13.77c-14.58,11.51-40.38,4.55-40.78-14.83h13.37
	c0.54,4.94,4.55,8.96,9.89,8.82c5.62,0,10.56-2.27,10.56-7.75c0-2.54-1.47-3.88-3.88-5.08c-8.96-3.61-22.19-3.47-27.68-12.43
	c-3.34-6.01-0.66-14.17,4.67-18.45c4.42-3.61,10.16-5.08,16.32-5.08c10.97-0.13,22.73,6.96,22.73,17.91h-13.64
	c-1.74-6.15-10.43-8.02-15.64-4.67c-2.67,1.74-3.74,4.94-1.2,6.96C189.99,207.24,196.01,208.18,201.09,208.97z M349.1,198.29
	c13.9-0.4,26.07,12.97,23.13,27.14H338c3.21,8.82,14.84,10.7,20.32,3.21h13.1c-5.48,16.32-27.27,20.72-39.04,8.82
	C317.28,222.62,328.64,198.15,349.1,198.29z M360.19,217.13c-4.01-10.43-18.18-10.43-22.19,0H360.19z M430.26,183.85h12.04v60.42
	h-12.04V183.85z M256.71,198.29v22.32c-0.66,15.91-22.46,15.91-22.99,0v-22.33h-12.04v22.33c0,2.4,0.4,4.81,1.07,7.09
	c3.08,9.77,12.17,16.44,22.46,16.44s19.38-6.69,22.46-16.44c0.66-2.27,1.07-4.67,1.07-7.09v-22.32H256.71z M424.91,221.28
	c0-12.7-10.43-22.99-23.4-22.99s-23.4,10.29-23.4,22.99s10.42,22.99,23.4,22.99c4.15,0,8.02-1.07,11.36-2.94v2.94h12.04V221.28z
	 M401.38,233.18c-6.82,0-12.17-5.35-12.17-12.04c0-6.55,5.48-12.04,12.17-12.04c6.82,0,12.17,5.35,12.17,12.04
	C413.55,227.83,408.05,233.18,401.38,233.18z M297.62,198.29c-10.29,0-19.38,6.69-22.46,16.44c-0.66,2.27-1.07,4.67-1.07,7.09v22.33
	h12.04v-22.33c0.27-8.02,5.89-12.04,11.5-12.04V198.29z M323.29,198.29c-10.29,0-19.38,6.69-22.46,16.44
	c-0.66,2.27-1.07,4.67-1.07,7.09v22.33h12.04v-22.33c0.27-8.02,5.88-12.04,11.5-12.04V198.29z"/>
<linearGradient id="SVGID_1_" gradientUnits="userSpaceOnUse" x1="-122.2286" y1="507.9883" x2="-121.7586" y2="507.5179" gradientTransform="matrix(104.3549 0 0 -60.3124 13223.6475 30838.3887)">
	<stop  offset="0" style="stop-color:#FF00A0"/>
	<stop  offset="1" style="stop-color:#9600FF"/>
</linearGradient>
<path class="st0" d="M482.54,186.12c-3.74-1.47-7.89-2.27-12.43-2.27h-22.46v60.3h22.46c4.81,0,9.09-0.8,12.83-2.27
	c11.5-4.42,17.91-15.78,17.78-27.95C500.86,201.76,494.03,190.52,482.54,186.12z M487.89,214.05c0.12,9.5-7.77,18.19-17.38,18.06
	h-10.97v-36.11h10.97C480.13,195.87,488.02,204.69,487.89,214.05z M544.03,211.92c9.5-7.21,4.42-23.13-5.89-26.75
	c-2.27-0.93-4.67-1.34-7.21-1.34h-24.87v60.3c1.47,0,28.21,0,28.21,0c4.81,0,9.36-1.74,12.7-4.94
	C554.47,231.98,553.66,217.27,544.03,211.92z M517.96,196.01h12.56c3.21,0,5.88,2.27,5.75,5.62c0.13,3.21-2.54,5.89-5.75,5.75
	h-12.56V196.01z M533.6,232.11h-15.51v-13.1h15.51c3.21-0.13,5.89,3.47,5.75,6.69C539.49,228.76,536.82,232.25,533.6,232.11z"/>
<linearGradient id="SVGID_2_" gradientUnits="userSpaceOnUse" x1="-121.9522" y1="509.9609" x2="-121.5731" y2="509.1949" gradientTransform="matrix(94.3961 0 0 -110.1176 11581.1182 56327.5352)">
	<stop  offset="0" style="stop-color:#FF00A0"/>
	<stop  offset="1" style="stop-color:#9600FF"/>
</linearGradient>
<path class="st1" d="M87.2,187.97l26.22,14.52v-5.82L87.2,182.18c-3.9,2.16-22.74,12.57-26.22,14.49
	c3.23,1.79,37.1,20.5,57.68,31.87v5.8c-2.8,1.55-31.47,17.38-31.47,17.38c-7.84-4.33-23.63-13.05-31.47-17.38v-17.38l31.47,17.38
	l5.25-2.9l-41.96-23.17v28.98l36.71,20.27c3.62-2,34.03-18.8,36.7-20.28v-11.59l-52.43-28.98L87.2,187.97z M50.48,190.87v11.6
	l52.43,28.98l-15.73,8.7l-26.22-14.52v5.82l26.22,14.49c3.9-2.16,22.74-12.57,26.22-14.49c-3.23-1.79-37.08-20.5-57.67-31.88v-5.8
	c2.8-1.55,31.47-17.38,31.47-17.38c7.83,4.34,23.62,13.06,31.47,17.38v17.38L87.2,193.77l-5.25,2.9l41.95,23.18v-28.98l-36.7-20.28
	C83.57,172.6,53.17,189.4,50.48,190.87z M87.2,159L40,185.08v57.95l47.2,26.08l47.2-26.07v-57.96L87.2,159z M129.14,240.14
	L87.2,263.32l-41.95-23.18v-52.15L87.2,164.8l41.95,23.18L129.14,240.14z"/>
</svg>
