<?xml version="1.0" encoding="utf-8"?>
<!-- Generator: Adobe Illustrator 25.0.1, SVG Export Plug-In . SVG Version: 6.00 Build 0)  -->
<svg version="1.0" id="Layer_1" xmlns="http://www.w3.org/2000/svg" xmlns:xlink="http://www.w3.org/1999/xlink" x="0px" y="0px"
	 viewBox="0 0 346 230" style="enable-background:new 0 0 346 230;" xml:space="preserve">
<style type="text/css">
	.st0{fill:#EE1D53;}
	.st1{fill:#010101;}
	.st2{fill:#67C9D0;}
</style>
<g>
	<path class="st0" d="M106.1,106.2c4.1,2.9,9.1,4.6,14.5,4.6v-10.4c-1,0-2-0.1-3-0.3v8.2c-5.4,0-10.4-1.7-14.5-4.6v21.2
		c0,10.6-8.6,19.2-19.2,19.2c-4,0-7.6-1.2-10.7-3.2c3.5,3.6,8.3,5.8,13.7,5.8c10.6,0,19.2-8.6,19.2-19.2V106.2L106.1,106.2z
		 M109.9,95.8c-2.1-2.3-3.4-5.2-3.7-8.5V86h-2.9C104,90.1,106.4,93.6,109.9,95.8L109.9,95.8z M79.9,132.7c-1.2-1.5-1.8-3.4-1.8-5.3
		c0-4.8,3.9-8.8,8.8-8.8c0.9,0,1.8,0.1,2.7,0.4v-10.6c-1-0.1-2-0.2-3-0.2v8.2c-0.9-0.3-1.8-0.4-2.7-0.4c-4.8,0-8.8,3.9-8.8,8.8
		C75.1,128.2,77.1,131.2,79.9,132.7z"/>
	<path class="st1" d="M103.1,103.7c4.1,2.9,9.1,4.6,14.5,4.6v-8.2c-3-0.6-5.7-2.2-7.7-4.4c-3.4-2.1-5.9-5.7-6.6-9.8h-7.6v41.4
		c0,4.8-3.9,8.7-8.8,8.7c-2.9,0-5.4-1.4-7-3.5c-2.9-1.4-4.8-4.4-4.8-7.8c0-4.8,3.9-8.8,8.8-8.8c0.9,0,1.8,0.1,2.7,0.4v-8.2
		c-10.4,0.2-18.8,8.7-18.8,19.2c0,5.2,2.1,9.9,5.5,13.4c3.1,2.1,6.7,3.2,10.7,3.2c10.6,0,19.2-8.6,19.2-19.2V103.7L103.1,103.7z"/>
	<path class="st2" d="M117.5,100.2V98c-2.7,0-5.4-0.8-7.7-2.2C111.9,98,114.6,99.5,117.5,100.2z M103.2,86c-0.1-0.4-0.1-0.8-0.2-1.2
		v-1.3H92.6v41.4c0,4.8-3.9,8.7-8.8,8.7c-1.4,0-2.8-0.3-3.9-0.9c1.6,2.1,4.1,3.5,7,3.5c4.8,0,8.8-3.9,8.8-8.7V86
		C95.7,86,103.2,86,103.2,86z M86.5,108.2v-2.4c-0.9-0.1-1.8-0.2-2.6-0.2c-10.6,0-19.2,8.6-19.2,19.2c0,6.6,3.4,12.5,8.5,15.9
		c-3.4-3.4-5.5-8.2-5.5-13.4C67.8,116.9,76.1,108.4,86.5,108.2z"/>
	<path class="st0" d="M238.4,135.4c7.6,0,13.7-6.1,13.7-13.6c0-7.5-6.1-13.6-13.7-13.6h-2.1c7.6,0,13.7,6.1,13.7,13.6
		s-6.1,13.6-13.7,13.6H238.4z"/>
	<path class="st2" d="M236.2,108.1h-2.1c-7.6,0-13.7,6.1-13.7,13.6s6.1,13.6,13.7,13.6h2.1c-7.6,0-13.7-6.1-13.7-13.6
		C222.4,114.2,228.6,108.1,236.2,108.1z"/>
	<path class="st1" d="M131.9,102v6.9h8.1v26.3h8.1v-26.1h6.6l2.3-7.1L131.9,102L131.9,102z M198,102v6.9h8.1v26.3h8.1v-26.1h6.6
		l2.2-7.1L198,102L198,102z M158.4,105.9c0-2.2,1.8-3.9,3.9-3.9c2.2,0,3.9,1.8,3.9,3.9s-1.8,3.9-3.9,3.9
		C160.1,109.8,158.4,108.1,158.4,105.9z M158.4,112.6h7.9v22.6h-7.9V112.6z M169.6,102v33.2h7.9v-8.6l2.4-2.2l7.7,11h8.5l-11.1-16
		l10-9.7h-9.6l-7.9,7.8V102L169.6,102L169.6,102z M254.8,102v33.2h7.9v-8.6l2.4-2.2l7.7,11h8.5l-11.1-16l10-9.7h-9.6l-7.9,7.8V102
		L254.8,102L254.8,102z"/>
	<path class="st1" d="M236.4,135.4c7.6,0,13.7-6.1,13.7-13.6c0-7.5-6.1-13.6-13.7-13.6h-0.2c-7.6,0-13.7,6.1-13.7,13.6
		s6.1,13.6,13.7,13.6H236.4z M229.6,121.7c0-3.7,3-6.6,6.7-6.6s6.7,3,6.7,6.6s-3,6.6-6.7,6.6S229.6,125.4,229.6,121.7z"/>
</g>
</svg>
