<?xml version="1.0" encoding="utf-8"?>
<!-- Generator: Adobe Illustrator 26.0.3, SVG Export Plug-In . SVG Version: 6.00 Build 0)  -->
<svg version="1.0" id="Layer_1" xmlns="http://www.w3.org/2000/svg" xmlns:xlink="http://www.w3.org/1999/xlink" x="0px" y="0px"
	 viewBox="0 0 916 647.3" style="enable-background:new 0 0 916 647.3;" xml:space="preserve">
<style type="text/css">
	.st0{fill:#243746;}
	.st1{fill:#99E1F4;}
	.st2{fill:#1A82E2;}
	.st3{fill:#00B2E3;}
	.st4{fill:#009DD9;}
</style>
<g>
	<path class="st0" d="M241.3,384.6l18.5-14.5c5.2,9,13.5,14.2,23,14.2c10.3,0,15.8-6.7,15.8-14c0-8.7-10.6-11.5-21.9-15
		c-14.2-4.4-30.1-9.9-30.1-30.2c0-17,14.8-30.5,35.3-30.5c17.3,0,27.2,6.5,35.8,15.4L301,322.6c-4.4-6.5-10.6-10-18.9-10
		c-9.4,0-14.5,5.1-14.5,11.8c0,8.1,10.2,10.9,21.5,14.7c14.4,4.7,30.7,11,30.7,31.4c0,16.9-13.4,33.1-36.8,33.1
		C263.7,403.7,250.9,395.5,241.3,384.6z M403.9,329.5h19.8v8.1c4.7-6,11.8-9.6,20.1-9.6c17.1,0,27.5,11,27.5,29.8v44.3H451v-41.7
		c0-9.7-4.5-15.4-13.4-15.4c-7.6,0-13.8,5.2-13.8,17.4v39.7h-19.9L403.9,329.5L403.9,329.5z M475.9,365.9
		c0-25.7,18.9-37.8,35.3-37.8c9.4,0,16.9,3.5,21.7,8.6v-40.6h19.9v106.1h-19.9v-8.1c-4.8,5.7-12.5,9.6-21.9,9.6
		C495.5,403.7,475.9,391.4,475.9,365.9z M533.4,365.7c0-10.8-7.8-19.5-18.6-19.5c-11,0-19.5,8.3-19.5,19.5
		c0,11.2,8.4,19.6,19.5,19.6C525.6,385.3,533.4,376.5,533.4,365.7z M557.4,349.2c0-30.2,22.8-54.5,54.2-54.5
		c15.7,0,28.9,5.7,38.5,14.7c3.9,3.7,7.2,7.9,9.8,12.5l-17.7,10.8c-6.5-12.1-16.6-18.3-30.4-18.3c-19.3,0-34.3,15.8-34.3,34.9
		c0,19.5,14.7,34.9,35,34.9c15.4,0,26.3-8.7,30.1-22.2h-33.3v-19.3h55.1v8.1c0,28.5-20.3,53-51.9,53
		C579.3,403.7,557.4,378.5,557.4,349.2z M669.4,329.5h19.8v11.9c3.6-7.6,10.2-11.9,20.1-11.9h8l-7.2,19.3h-5.4
		c-10.6,0-15.3,5.5-15.3,19v34.3h-19.9L669.4,329.5L669.4,329.5z M722.4,329.5h19.9v72.7h-19.9v-53.3h-7.2L722.4,329.5z
		 M732.4,318.5c6.6,0,11.9-5.3,11.9-11.9s-5.3-11.9-11.9-11.9c-6.6,0-11.9,5.3-11.9,11.9C720.5,313.1,725.8,318.5,732.4,318.5z
		 M747,365.9c0-25.7,18.9-37.8,35.3-37.8c9.4,0,16.9,3.5,21.7,8.6v-40.6h19.9v106.1H804v-8.1c-4.8,5.7-12.5,9.6-21.9,9.6
		C766.6,403.7,747,391.4,747,365.9z M804.6,365.7c0-10.8-7.8-19.5-18.6-19.5c-11,0-19.5,8.3-19.5,19.5c0,11.2,8.4,19.6,19.5,19.6
		C796.7,385.3,804.6,376.5,804.6,365.7z M399.2,365.7c0-20.9-15.3-37.6-37.5-37.6c-20.9,0-37.8,16.9-37.8,37.8s15.7,37.8,38.4,37.8
		c15.7,0,27-7.6,33.3-18.4l-15.8-9.4c-3.3,6.4-9.8,10.4-17.4,10.4c-10.5,0-17-5.2-19.3-13.2h56.1L399.2,365.7L399.2,365.7z M344,357
		c3.1-6.8,9.4-11.5,17.9-11.5c8.4,0,14.7,3.9,17.3,11.5H344z"/>
</g>
<g>
	<rect x="132.6" y="359.8" class="st1" width="42.4" height="42.4"/>
	<polygon class="st1" points="132.6,317.3 132.6,317.3 132.6,317.3 90.2,317.3 90.2,359.8 132.6,359.8 	"/>
	<rect x="90.2" y="359.8" class="st2" width="42.4" height="42.4"/>
	<polygon class="st3" points="217.5,317.3 217.5,317.3 175.1,317.3 175.1,359.8 217.5,359.8 	"/>
	<rect x="132.6" y="274.9" class="st3" width="42.4" height="42.4"/>
	<polygon class="st4" points="132.6,317.3 132.6,359.8 175.1,359.8 175.1,317.3 175.1,317.3 	"/>
	<rect x="175.1" y="274.9" class="st2" width="42.4" height="42.4"/>
</g>
<g>
	<g>
		<path class="st0" d="M261.4,249.3V274h-5.7v-24.7h-8.8v-5h23.4v4.9L261.4,249.3L261.4,249.3z"/>
		<path class="st0" d="M311.9,274h-5.4l-6.6-21.6l-6.6,21.6h-5.4l-8.3-29.8l6,0.1l5.5,21l6.2-21h5.7l6.2,21l5.4-21h5.7L311.9,274z"
			/>
		<path class="st0" d="M331.7,274v-29.7h5.7V274H331.7z"/>
		<path class="st0" d="M350.7,274v-29.7h5.7V269h9.9l0.1,5H350.7z"/>
		<path class="st0" d="M378.2,274v-29.7h5.7V274H378.2z"/>
		<path class="st0" d="M410,274.6c-8.4,0-13.9-6.2-13.9-15.4c0-9.2,5.5-15.4,14-15.4S424,250,424,259.2
			C423.9,268.3,418.5,274.6,410,274.6z M410,248.5c-5.1,0-8.1,4.2-8.1,10.7s3.1,10.7,8.1,10.7c5.1,0,8.2-4.2,8.2-10.7
			S415.1,248.5,410,248.5z"/>
	</g>
</g>
</svg>
