<?xml version="1.0" encoding="utf-8"?>
<!-- Generator: Adobe Illustrator 25.0.1, SVG Export Plug-In . SVG Version: 6.00 Build 0)  -->
<svg version="1.0" id="katman_1" xmlns="http://www.w3.org/2000/svg" xmlns:xlink="http://www.w3.org/1999/xlink" x="0px" y="0px"
	 viewBox="0 0 255 168" style="enable-background:new 0 0 255 168;" xml:space="preserve">
<style type="text/css">
	.st0{fill:#F12E45;}
</style>
<g id="Page-1">
	<g id="logo">
		<path id="Shape" class="st0" d="M161.1,68.8h-8.8c-0.2,0-0.4,0.2-0.4,0.4v5.1c0,0.2,0.2,0.4,0.4,0.4h8.8c0.2,0,0.4-0.2,0.4-0.4
			v-5.1C161.6,69,161.4,68.8,161.1,68.8z M161,76.4h-17c-0.2,0-0.5,0.2-0.6,0.4l-2.2,8.3l-0.1,0.4l-2.6-8.9
			c-0.1-0.2-0.3-0.4-0.6-0.4h-6.6c-0.2,0-0.5,0.2-0.6,0.4l-2.5,8.3l-0.1,0.4l-0.1-0.2l-1-4.1l-1.1-4.1c-0.1-0.2-0.3-0.4-0.6-0.4H112
			v-7.2c0-0.2-0.3-0.5-0.6-0.4l-8.4,2.6c-0.3,0.1-0.4,0.2-0.4,0.4v4.5h-2.2c-0.2,0-0.4,0.2-0.4,0.4v6.4c0,0.2,0.2,0.4,0.4,0.4h2.2
			v7.8c0,5.5,3,8.1,8.5,8.1c2.3,0,4.5-0.5,6-1.3v-6.6c0-0.3-0.3-0.4-0.5-0.4c-0.9,0.4-1.6,0.5-2.4,0.5c-1.5,0-2.3-0.6-2.3-2.3v-5.7
			h4.8c0.2,0,0.4-0.2,0.4-0.4v-5.4l6.3,20.9c0.1,0.2,0.3,0.4,0.6,0.4h7c0.2,0,0.5-0.2,0.6-0.4l3-9.3l1.5,4.8l1.4,4.4
			c0.1,0.2,0.3,0.4,0.6,0.4h7c0.2,0,0.5-0.2,0.6-0.4l6.4-21v21c0,0.2,0.2,0.4,0.4,0.4h8.5c0.2,0,0.4-0.2,0.4-0.4V76.9
			C161.4,76.6,161.2,76.4,161,76.4L161,76.4z M172.2,68.8h-8.5c-0.2,0-0.4,0.2-0.4,0.4v29.5c0,0.2,0.2,0.4,0.4,0.4h8.5
			c0.2,0,0.4-0.2,0.4-0.4V69.2C172.6,69,172.4,68.8,172.2,68.8z M183.5,68.8h-8.8c-0.2,0-0.4,0.2-0.4,0.4v5.1c0,0.2,0.2,0.4,0.4,0.4
			h8.8c0.2,0,0.4-0.2,0.4-0.4v-5.1C184,69,183.8,68.8,183.5,68.8z M183.4,76.4h-8.5c-0.2,0-0.4,0.2-0.4,0.4v21.9
			c0,0.2,0.2,0.4,0.4,0.4h8.5c0.2,0,0.4-0.2,0.4-0.4V76.9C183.8,76.6,183.6,76.4,183.4,76.4L183.4,76.4z M197.5,75.9
			c-7.5,0-12.8,5.5-12.8,11.9v0.1c0,6.4,5.3,11.8,12.7,11.8c7.5,0,12.8-5.5,12.8-11.9v-0.1C210.2,81.3,204.9,75.9,197.5,75.9z
			 M201.1,87.8c0,2.2-1.5,3.9-3.6,3.9s-3.7-1.8-3.7-4v-0.1c0-2.2,1.5-3.9,3.6-3.9C199.5,83.7,201.1,85.5,201.1,87.8z M69,59
			c-13.8,0-25,11.2-25,25s11.2,25,25,25s25-11.2,25-25S82.8,59,69,59z M69,102.4c-10.2,0-18.4-8.2-18.4-18.4S58.8,65.6,69,65.6
			S87.4,73.8,87.4,84S79.2,102.4,69,102.4z"/>
		<circle id="Oval" class="st0" cx="75.2" cy="77.8" r="5.2"/>
		<circle id="Oval_1_" class="st0" cx="75.2" cy="90.2" r="5.2"/>
		<circle id="Oval_2_" class="st0" cx="62.8" cy="90.2" r="5.2"/>
		<circle id="Oval_3_" class="st0" cx="62.8" cy="77.8" r="5.2"/>
	</g>
</g>
</svg>
