<?xml version="1.0" encoding="UTF-8" standalone="no"?>
<svg
   xmlns:dc="http://purl.org/dc/elements/1.1/"
   xmlns:cc="http://creativecommons.org/ns#"
   xmlns:rdf="http://www.w3.org/1999/02/22-rdf-syntax-ns#"
   xmlns:svg="http://www.w3.org/2000/svg"
   xmlns="http://www.w3.org/2000/svg"
   xmlns:sodipodi="http://sodipodi.sourceforge.net/DTD/sodipodi-0.dtd"
   xmlns:inkscape="http://www.inkscape.org/namespaces/inkscape"
   width="200pt"
   height="55pt"
   viewBox="0 0 200 55"
   version="1.1"
   id="svg2"
   inkscape:version="0.48.2 r9819"
   sodipodi:docname="Vagrant_Logo.svg">
  <metadata
     id="metadata24">
    <rdf:RDF>
      <cc:Work
         rdf:about="">
        <dc:format>image/svg+xml</dc:format>
        <dc:type
           rdf:resource="http://purl.org/dc/dcmitype/StillImage" />
      </cc:Work>
    </rdf:RDF>
  </metadata>
  <defs
     id="defs22" />
  <sodipodi:namedview
     pagecolor="#ffffff"
     bordercolor="#666666"
     borderopacity="1"
     objecttolerance="10"
     gridtolerance="10"
     guidetolerance="10"
     inkscape:pageopacity="0"
     inkscape:pageshadow="2"
     inkscape:window-width="1024"
     inkscape:window-height="712"
     id="namedview20"
     showgrid="false"
     inkscape:zoom="16.765773"
     inkscape:cx="238.17028"
     inkscape:cy="20.715828"
     inkscape:window-x="-4"
     inkscape:window-y="-4"
     inkscape:window-maximized="1"
     inkscape:current-layer="svg2" />
  <g
     id="#231f20ff">
    <path
       d=" M 0.18 0.00 L 10.27 0.00 C 13.38 8.86 16.14 17.84 19.08 26.76 C 22.25 17.90 24.95 8.88 28.04 0.00 L 38.46 0.00 C 36.03 6.52 34.29 13.28 31.62 19.72 C 32.06 20.36 32.51 21.00 32.95 21.64 C 33.90 11.08 49.41 5.31 56.33 13.91 C 56.33 12.86 56.33 11.81 56.34 10.76 C 59.36 10.76 62.38 10.77 65.40 10.77 C 65.39 21.00 65.34 31.22 65.42 41.45 C 62.38 41.46 59.33 41.47 56.29 41.48 C 56.32 40.73 56.38 39.25 56.41 38.50 C 50.84 44.79 39.95 43.27 35.31 36.64 C 32.01 32.38 31.66 26.68 32.54 21.55 C 32.06 21.70 31.11 21.99 30.64 22.13 C 29.30 28.76 26.71 35.09 24.48 41.46 C 20.90 41.36 17.32 41.35 13.73 41.40 C 9.22 27.60 4.33 13.91 0.18 0.00 M 46.40 18.65 C 41.09 20.19 39.43 27.82 43.34 31.61 C 46.75 35.60 54.36 34.13 55.74 28.93 C 58.34 23.30 52.32 16.51 46.40 18.65 Z"
       id="path5"
       fill="#231f20"
       opacity="1.00" />
    <path
       d=" M 181.45 0.63 C 184.48 0.64 187.51 0.63 190.55 0.63 C 190.55 4.00 190.56 7.38 190.52 10.76 C 191.93 10.75 193.34 10.74 194.76 10.74 C 194.85 13.08 194.87 15.42 194.86 17.76 C 193.43 17.76 191.99 17.75 190.56 17.74 C 190.55 25.66 190.53 33.57 190.53 41.49 C 187.50 41.47 184.47 41.45 181.45 41.47 C 181.49 27.85 181.44 14.24 181.45 0.63 Z"
       id="path7"
       fill="#231f20"
       opacity="1.00" />
    <path
       d=" M 68.09 18.18 C 71.66 10.24 83.49 6.67 89.98 13.19 C 90.10 12.66 90.32 11.59 90.43 11.06 C 93.27 10.37 96.27 10.88 99.18 10.80 C 99.03 21.55 99.54 32.32 98.93 43.05 C 98.31 50.56 90.40 54.64 83.62 55.00 L 79.68 55.00 C 73.59 54.57 67.97 50.43 66.63 44.32 C 70.09 44.27 73.55 44.22 77.01 44.28 C 79.09 46.81 82.55 48.30 85.68 46.74 C 89.23 45.50 89.92 41.47 90.40 38.24 C 85.84 43.82 77.20 43.51 71.98 39.06 C 65.87 34.21 64.98 24.95 68.09 18.18 M 79.26 19.32 C 72.98 22.36 74.85 33.44 81.98 33.76 C 87.16 34.66 91.40 29.01 89.86 24.20 C 89.07 19.56 83.30 16.84 79.26 19.32 Z"
       id="path9"
       fill="#231f20"
       opacity="1.00" />
    <path
       d=" M 109.34 13.90 C 111.09 11.19 113.97 9.65 117.21 9.62 C 117.22 12.76 117.20 15.90 117.15 19.04 C 114.40 19.08 110.60 19.60 110.13 22.96 C 109.53 29.09 110.00 35.29 109.91 41.44 C 106.89 41.48 103.86 41.47 100.84 41.43 C 100.85 31.22 100.84 21.00 100.85 10.78 C 103.69 10.77 106.54 10.76 109.38 10.76 C 109.37 11.55 109.35 13.11 109.34 13.90 Z"
       id="path11"
       fill="#231f20"
       opacity="1.00" />
    <path
       d=" M 122.85 12.87 C 127.87 8.90 136.50 8.14 140.64 13.74 C 140.80 13.03 141.10 11.61 141.26 10.90 C 144.20 10.57 147.18 10.83 150.13 10.79 C 150.14 21.01 150.13 31.22 150.14 41.44 C 147.05 41.48 143.96 41.48 140.88 41.42 C 140.87 40.68 140.85 39.21 140.84 38.47 C 136.33 44.22 127.14 43.40 122.04 38.89 C 114.73 32.24 114.88 18.95 122.85 12.87 M 131.40 18.56 C 125.76 20.00 124.03 28.00 128.27 31.87 C 132.39 36.18 140.80 33.17 140.84 27.04 C 141.86 21.80 136.50 17.04 131.40 18.56 Z"
       id="path13"
       fill="#231f20"
       opacity="1.00" />
    <path
       d=" M 160.23 13.93 C 165.10 6.45 178.91 9.55 179.61 18.63 C 180.12 26.21 179.64 33.83 179.87 41.43 C 176.81 41.47 173.76 41.48 170.70 41.45 C 170.61 34.96 170.94 28.45 170.56 21.97 C 170.12 17.73 163.49 17.15 161.64 20.64 C 160.74 22.28 160.79 24.20 160.77 26.01 C 160.81 31.16 160.76 36.30 160.83 41.44 C 157.79 41.47 154.76 41.48 151.72 41.45 C 151.74 31.22 151.70 21.00 151.74 10.77 C 154.59 10.77 157.43 10.77 160.28 10.77 C 160.27 11.56 160.24 13.14 160.23 13.93 Z"
       id="path15"
       fill="#231f20"
       opacity="1.00" />
  </g>
  <path
     sodipodi:type="arc"
     style="fill:#4e9d45;fill-opacity:0.98989222;stroke:#4e9d45;stroke-opacity:1"
     id="path4143"
     sodipodi:cx="244.3669"
     sodipodi:cy="46.949635"
     sodipodi:rx="4.8312712"
     sodipodi:ry="4.8014488"
     d="m 249.19817,46.949635 a 4.8312712,4.8014488 0 1 1 -9.66254,0 4.8312712,4.8014488 0 1 1 9.66254,0 z"
     transform="scale(0.8,0.8)" />
</svg>
